<?xml version="1.0" encoding="UTF-8" standalone="no"?>
<!-- Created with Inkscape (http://www.inkscape.org/) -->

<svg
   height="1024"
   width="1024"
   sodipodi:docname="u2655_white_chess_queen.svg"
   version="1.1"
   id="svg4375"
   viewBox="0 0 1024 1024"
   inkscape:version="1.2.2 (732a01da63, 2022-12-09)"
   xml:space="preserve"
   xmlns:inkscape="http://www.inkscape.org/namespaces/inkscape"
   xmlns:sodipodi="http://sodipodi.sourceforge.net/DTD/sodipodi-0.dtd"
   xmlns="http://www.w3.org/2000/svg"
   xmlns:svg="http://www.w3.org/2000/svg"
   xmlns:rdf="http://www.w3.org/1999/02/22-rdf-syntax-ns#"
   xmlns:cc="http://creativecommons.org/ns#"
   xmlns:dc="http://purl.org/dc/elements/1.1/"><sodipodi:namedview
     id="base"
     pagecolor="#ffffff"
     bordercolor="#000000"
     borderopacity="0.3"
     inkscape:pageopacity="0.0"
     inkscape:pageshadow="2"
     inkscape:zoom="1"
     inkscape:cx="675"
     inkscape:cy="404.5"
     inkscape:document-units="px"
     inkscape:current-layer="layer1"
     showgrid="false"
     showguides="true"
     inkscape:window-width="2560"
     inkscape:window-height="1361"
     inkscape:window-x="-9"
     inkscape:window-y="136"
     inkscape:window-maximized="1"
     showborder="true"
     inkscape:showpageshadow="false"
     inkscape:pagecheckerboard="0"
     inkscape:deskcolor="#d1d1d1"
     inkscape:lockguides="true"><sodipodi:guide
       id="guide_baseline"
       inkscape:label="baseline"
       position="-100,204.8"
       orientation="0,1"
       inkscape:locked="true"
       inkscape:color="rgb(165,29,45)" /><sodipodi:guide
       id="guide_ascender"
       inkscape:label="ascender"
       position="-100,1024"
       orientation="0,1"
       inkscape:locked="true"
       inkscape:color="rgb(0,134,229)" /><sodipodi:guide
       id="guide_caps"
       inkscape:label="1/10 CAPS"
       position="-100,921.6"
       orientation="0,1"
       inkscape:locked="true"
       inkscape:color="rgb(165,29,45)" /><sodipodi:guide
       id="guide_xheight"
       inkscape:label="xheight"
       position="-100,716.8"
       orientation="0,1"
       inkscape:locked="true"
       inkscape:color="rgb(165,29,45)" /><sodipodi:guide
       id="guide_descender"
       inkscape:label="descender"
       position="-100,0"
       orientation="0,1"
       inkscape:locked="true"
       inkscape:color="rgb(0,134,229)" /><sodipodi:guide
       position="204.8,1049"
       orientation="-1,0"
       id="guide4387"
       inkscape:locked="true"
       inkscape:label="204.8"
       inkscape:color="rgb(0,134,229)" /><sodipodi:guide
       position="409.6,1049"
       orientation="-1,0"
       id="guide4389"
       inkscape:locked="true"
       inkscape:label="409.6"
       inkscape:color="rgb(0,134,229)" /><sodipodi:guide
       position="-100,819.2"
       orientation="0,1"
       id="guide4391"
       inkscape:locked="true"
       inkscape:label="2/10"
       inkscape:color="rgb(38,162,105)" /><sodipodi:guide
       position="-100,614.4"
       orientation="0,1"
       id="guide4393"
       inkscape:locked="true"
       inkscape:label="4/10"
       inkscape:color="rgb(38,162,105)" /><sodipodi:guide
       position="-100,512"
       orientation="0,1"
       id="guide4395"
       inkscape:locked="true"
       inkscape:label="5/10"
       inkscape:color="rgb(38,162,105)" /><sodipodi:guide
       position="-100,409.6"
       orientation="0,1"
       id="guide4397"
       inkscape:locked="true"
       inkscape:label="6/10"
       inkscape:color="rgb(38,162,105)" /><sodipodi:guide
       position="-100,307.2"
       orientation="0,1"
       id="guide4399"
       inkscape:locked="true"
       inkscape:label="7/10"
       inkscape:color="rgb(38,162,105)" /><sodipodi:guide
       position="-100,102.4"
       orientation="0,1"
       id="guide4401"
       inkscape:locked="true"
       inkscape:label="1/10"
       inkscape:color="rgb(38,162,105)" /><sodipodi:guide
       position="614.4,1049"
       orientation="-1,0"
       id="guide4403"
       inkscape:locked="true"
       inkscape:label="614.4"
       inkscape:color="rgb(0,134,229)" /><sodipodi:guide
       position="819.2,1049"
       orientation="-1,0"
       id="guide4405"
       inkscape:locked="true"
       inkscape:label="819.2"
       inkscape:color="rgb(0,134,229)" /><sodipodi:guide
       position="1024,1049"
       orientation="-1,0"
       id="guide4407"
       inkscape:locked="true"
       inkscape:label="1024"
       inkscape:color="rgb(0,134,229)" /><sodipodi:guide
       position="-100,871.4"
       orientation="0,1"
       id="guide8061"
       inkscape:locked="true"
       inkscape:label="1.5/10"
       inkscape:color="rgb(0,134,229)" /><sodipodi:guide
       position="-100,256"
       orientation="0,1"
       id="guide8063"
       inkscape:locked="true"
       inkscape:label="7.5/10"
       inkscape:color="rgb(143,240,164)" /><sodipodi:guide
       position="102.4,1049"
       orientation="-1,0"
       id="guide8093"
       inkscape:locked="true"
       inkscape:label="102.4"
       inkscape:color="rgb(0,134,229)" /><sodipodi:guide
       position="307.2,1049"
       orientation="-1,0"
       id="guide8095"
       inkscape:locked="true"
       inkscape:label="307.2"
       inkscape:color="rgb(0,134,229)" /><sodipodi:guide
       position="512,1049"
       orientation="-1,0"
       id="guide8099"
       inkscape:locked="true"
       inkscape:label="512"
       inkscape:color="rgb(0,134,229)" /><sodipodi:guide
       position="716.8,1049"
       orientation="-1,0"
       id="guide8101"
       inkscape:locked="true"
       inkscape:label="716.8"
       inkscape:color="rgb(0,134,229)" /><sodipodi:guide
       position="921.6,1049"
       orientation="-1,0"
       id="guide8167"
       inkscape:locked="true"
       inkscape:label="921.6"
       inkscape:color="rgb(0,134,229)" /><sodipodi:guide
       position="-100,768"
       orientation="0,1"
       id="guide8258"
       inkscape:locked="true"
       inkscape:label=""
       inkscape:color="rgb(229,165,10)" /><sodipodi:guide
       position="153.6,1074"
       orientation="-1,0"
       id="guide8297"
       inkscape:locked="true"
       inkscape:label=""
       inkscape:color="rgb(0,134,229)" /><sodipodi:guide
       position="-100,564"
       orientation="0,1"
       id="guide8299"
       inkscape:locked="true"
       inkscape:label=""
       inkscape:color="rgb(0,134,229)" /><sodipodi:guide
       position="-100,665.6"
       orientation="0,1"
       id="guide8301"
       inkscape:locked="true"
       inkscape:label=""
       inkscape:color="rgb(0,134,229)" /><sodipodi:guide
       position="358.4,1074"
       orientation="-1,0"
       id="guide8303"
       inkscape:locked="true"
       inkscape:label=""
       inkscape:color="rgb(0,134,229)" /><sodipodi:guide
       position="-100,460.8"
       orientation="0,1"
       id="guide8344"
       inkscape:locked="true"
       inkscape:label=""
       inkscape:color="rgb(0,134,229)" /><sodipodi:guide
       position="-100,358.4"
       orientation="0,1"
       id="guide8346"
       inkscape:locked="true"
       inkscape:label=""
       inkscape:color="rgb(0,134,229)" /><sodipodi:guide
       position="0,1049"
       orientation="-1,0"
       id="guide9752"
       inkscape:locked="true"
       inkscape:label="0"
       inkscape:color="rgb(0,134,229)" /><sodipodi:guide
       position="256,1074"
       orientation="-1,0"
       id="guide11115"
       inkscape:locked="true"
       inkscape:label=""
       inkscape:color="rgb(0,134,229)" /><sodipodi:guide
       position="563.2,1074"
       orientation="-1,0"
       id="guide11117"
       inkscape:locked="true"
       inkscape:label=""
       inkscape:color="rgb(0,134,229)" /><sodipodi:guide
       position="665.6,1074"
       orientation="-1,0"
       id="guide12436"
       inkscape:locked="true"
       inkscape:label=""
       inkscape:color="rgb(0,134,229)" /><sodipodi:guide
       position="460.8,1074"
       orientation="-1,0"
       id="guide12704"
       inkscape:locked="true"
       inkscape:label=""
       inkscape:color="rgb(0,134,229)" /><sodipodi:guide
       position="-100,153.6"
       orientation="0,1"
       id="guide13358"
       inkscape:locked="true"
       inkscape:label="8.5/10"
       inkscape:color="rgb(0,134,229)" /><sodipodi:guide
       position="-100,128"
       orientation="0,1"
       id="guide13360"
       inkscape:locked="true"
       inkscape:label=""
       inkscape:color="rgb(0,134,229)" /><sodipodi:guide
       position="-100,51.2"
       orientation="0,1"
       id="guide30306"
       inkscape:locked="true"
       inkscape:label=""
       inkscape:color="rgb(0,134,229)" /><sodipodi:guide
       position="51.2,1074"
       orientation="-1,0"
       id="guide417"
       inkscape:locked="true"
       inkscape:label=""
       inkscape:color="rgb(0,134,229)" /><sodipodi:guide
       position="768,1074"
       orientation="-1,0"
       id="guide615"
       inkscape:locked="true"
       inkscape:label=""
       inkscape:color="rgb(0,134,229)" /><sodipodi:guide
       position="-100,972.8"
       orientation="0,1"
       id="guide9421"
       inkscape:locked="true"
       inkscape:label=""
       inkscape:color="rgb(0,134,229)" /><sodipodi:guide
       position="-100,1126.4"
       orientation="0,1"
       id="guide8432"
       inkscape:locked="true"
       inkscape:label=""
       inkscape:color="rgb(0,134,229)" /><sodipodi:guide
       position="-100,1075.2"
       orientation="0,1"
       id="guide8434"
       inkscape:locked="true"
       inkscape:label=""
       inkscape:color="rgb(0,134,229)" /><sodipodi:guide
       position="870.4,1074"
       orientation="-1,0"
       id="guide8436"
       inkscape:locked="true"
       inkscape:label=""
       inkscape:color="rgb(0,134,229)" /></sodipodi:namedview><defs
     id="defs4"><linearGradient
       id="linearGradient8000"
       inkscape:swatch="solid"><stop
         style="stop-color:#000000;stop-opacity:1;"
         offset="0"
         id="stop7998" /></linearGradient><clipPath
       clipPathUnits="userSpaceOnUse"
       id="clipPath6029"><g
         inkscape:label="Clip"
         id="use6031" /></clipPath><clipPath
       clipPathUnits="userSpaceOnUse"
       id="clipPath6029-3"><g
         inkscape:label="Clip"
         id="use6031-9" /></clipPath><clipPath
       clipPathUnits="userSpaceOnUse"
       id="clipPath6029-85"><g
         inkscape:label="Clip"
         id="use6031-4" /></clipPath><clipPath
       clipPathUnits="userSpaceOnUse"
       id="clipPath6029-9"><g
         inkscape:label="Clip"
         id="use6031-8" /></clipPath><clipPath
       clipPathUnits="userSpaceOnUse"
       id="clipPath6029-8"><g
         inkscape:label="Clip"
         id="use6031-0" /></clipPath><clipPath
       clipPathUnits="userSpaceOnUse"
       id="clipPath8428"><g
         inkscape:label="Clip"
         id="use8430" /></clipPath><clipPath
       clipPathUnits="userSpaceOnUse"
       id="clipPath6029-5"><g
         inkscape:label="Clip"
         id="use6031-6" /></clipPath><clipPath
       clipPathUnits="userSpaceOnUse"
       id="clipPath6029-83"><g
         inkscape:label="Clip"
         id="use6031-62" /></clipPath><clipPath
       clipPathUnits="userSpaceOnUse"
       id="clipPath6029-6"><g
         inkscape:label="Clip"
         id="use6031-3" /></clipPath><clipPath
       clipPathUnits="userSpaceOnUse"
       id="clipPath6029-7"><g
         inkscape:label="Clip"
         id="use6031-99" /></clipPath><clipPath
       clipPathUnits="userSpaceOnUse"
       id="clipPath6029-30"><g
         inkscape:label="Clip"
         id="use6031-5" /></clipPath><clipPath
       clipPathUnits="userSpaceOnUse"
       id="clipPath6029-99"><g
         inkscape:label="Clip"
         id="use6031-05" /></clipPath><clipPath
       clipPathUnits="userSpaceOnUse"
       id="clipPath6029-4"><g
         inkscape:label="Clip"
         id="use6031-39" /></clipPath><clipPath
       clipPathUnits="userSpaceOnUse"
       id="clipPath6029-68"><g
         inkscape:label="Clip"
         id="use6031-7" /></clipPath><clipPath
       clipPathUnits="userSpaceOnUse"
       id="clipPath6029-92"><g
         inkscape:label="Clip"
         id="use6031-76" /></clipPath><clipPath
       clipPathUnits="userSpaceOnUse"
       id="clipPath6029-73"><g
         inkscape:label="Clip"
         id="use6031-75" /></clipPath><clipPath
       clipPathUnits="userSpaceOnUse"
       id="clipPath6029-1"><g
         inkscape:label="Clip"
         id="use6031-1" /></clipPath><clipPath
       clipPathUnits="userSpaceOnUse"
       id="clipPath6029-37"><g
         inkscape:label="Clip"
         id="use6031-2" /></clipPath><clipPath
       clipPathUnits="userSpaceOnUse"
       id="clipPath6029-67"><g
         inkscape:label="Clip"
         id="use6031-81" /></clipPath><clipPath
       clipPathUnits="userSpaceOnUse"
       id="clipPath6029-76"><g
         inkscape:label="Clip"
         id="use6031-766" /></clipPath><clipPath
       clipPathUnits="userSpaceOnUse"
       id="clipPath6029-685"><g
         inkscape:label="Clip"
         id="use6031-19" /></clipPath><clipPath
       clipPathUnits="userSpaceOnUse"
       id="clipPath6029-33"><g
         inkscape:label="Clip"
         id="use6031-37" /></clipPath><clipPath
       clipPathUnits="userSpaceOnUse"
       id="clipPath6029-40"><g
         inkscape:label="Clip"
         id="use6031-46" /></clipPath><clipPath
       clipPathUnits="userSpaceOnUse"
       id="clipPath6029-764"><g
         inkscape:label="Clip"
         id="use6031-29" /></clipPath><clipPath
       clipPathUnits="userSpaceOnUse"
       id="clipPath6029-44"><g
         inkscape:label="Clip"
         id="use6031-00" /></clipPath><clipPath
       clipPathUnits="userSpaceOnUse"
       id="clipPath6029-77"><g
         inkscape:label="Clip"
         id="use6031-68" /></clipPath><clipPath
       clipPathUnits="userSpaceOnUse"
       id="clipPath6029-31"><g
         inkscape:label="Clip"
         id="use6031-86" /></clipPath><clipPath
       clipPathUnits="userSpaceOnUse"
       id="clipPath6029-62"><g
         inkscape:label="Clip"
         id="use6031-58" /></clipPath><clipPath
       clipPathUnits="userSpaceOnUse"
       id="clipPath6029-56"><g
         inkscape:label="Clip"
         id="use6031-77" /></clipPath><clipPath
       clipPathUnits="userSpaceOnUse"
       id="clipPath6029-18"><g
         inkscape:label="Clip"
         id="use6031-26" /></clipPath><clipPath
       clipPathUnits="userSpaceOnUse"
       id="clipPath6029-2"><g
         inkscape:label="Clip"
         id="use6031-91" /></clipPath><clipPath
       clipPathUnits="userSpaceOnUse"
       id="clipPath6029-0"><g
         inkscape:label="Clip"
         id="use6031-17" /></clipPath><clipPath
       clipPathUnits="userSpaceOnUse"
       id="clipPath6029-373"><g
         inkscape:label="Clip"
         id="use6031-80" /></clipPath><clipPath
       clipPathUnits="userSpaceOnUse"
       id="clipPath6029-98"><g
         inkscape:label="Clip"
         id="use6031-773" /></clipPath><clipPath
       clipPathUnits="userSpaceOnUse"
       id="clipPath6029-24"><g
         inkscape:label="Clip"
         id="use6031-44" /></clipPath><clipPath
       clipPathUnits="userSpaceOnUse"
       id="clipPath6029-185"><g
         inkscape:label="Clip"
         id="use6031-61" /></clipPath><clipPath
       clipPathUnits="userSpaceOnUse"
       id="clipPath6029-87"><g
         inkscape:label="Clip"
         id="use6031-79" /></clipPath><clipPath
       clipPathUnits="userSpaceOnUse"
       id="clipPath6029-19"><g
         inkscape:label="Clip"
         id="use6031-45" /></clipPath><clipPath
       clipPathUnits="userSpaceOnUse"
       id="clipPath6029-52"><g
         inkscape:label="Clip"
         id="use6031-25" /></clipPath><clipPath
       clipPathUnits="userSpaceOnUse"
       id="clipPath6029-79"><g
         inkscape:label="Clip"
         id="use6031-59" /></clipPath><clipPath
       clipPathUnits="userSpaceOnUse"
       id="clipPath6029-60"><g
         inkscape:label="Clip"
         id="use6031-50" /></clipPath><clipPath
       clipPathUnits="userSpaceOnUse"
       id="clipPath6029-440"><g
         inkscape:label="Clip"
         id="use6031-056" /></clipPath><clipPath
       clipPathUnits="userSpaceOnUse"
       id="clipPath6029-65"><g
         inkscape:label="Clip"
         id="use6031-97" /></clipPath><clipPath
       clipPathUnits="userSpaceOnUse"
       id="clipPath6029-768"><g
         inkscape:label="Clip"
         id="use6031-35" /></clipPath><clipPath
       clipPathUnits="userSpaceOnUse"
       id="clipPath6029-404"><g
         inkscape:label="Clip"
         id="use6031-43" /></clipPath><clipPath
       clipPathUnits="userSpaceOnUse"
       id="clipPath6029-306"><g
         inkscape:label="Clip"
         id="use6031-376" /></clipPath><clipPath
       clipPathUnits="userSpaceOnUse"
       id="clipPath6029-71"><g
         inkscape:label="Clip"
         id="use6031-66" /></clipPath><clipPath
       clipPathUnits="userSpaceOnUse"
       id="clipPath6029-731"><g
         inkscape:label="Clip"
         id="use6031-626" /></clipPath><clipPath
       clipPathUnits="userSpaceOnUse"
       id="clipPath6029-23"><g
         inkscape:label="Clip"
         id="use6031-811" /></clipPath><clipPath
       clipPathUnits="userSpaceOnUse"
       id="clipPath6029-198"><g
         inkscape:label="Clip"
         id="use6031-16" /></clipPath><clipPath
       clipPathUnits="userSpaceOnUse"
       id="clipPath6029-653"><g
         inkscape:label="Clip"
         id="use6031-6268" /></clipPath><clipPath
       clipPathUnits="userSpaceOnUse"
       id="clipPath6029-54"><g
         inkscape:label="Clip"
         id="use6031-10" /></clipPath><clipPath
       clipPathUnits="userSpaceOnUse"
       id="clipPath6029-32"><g
         inkscape:label="Clip"
         id="use6031-175" /></clipPath><clipPath
       clipPathUnits="userSpaceOnUse"
       id="clipPath6029-21"><g
         inkscape:label="Clip"
         id="use6031-23" /></clipPath><clipPath
       clipPathUnits="userSpaceOnUse"
       id="clipPath6029-49"><g
         inkscape:label="Clip"
         id="use6031-93" /></clipPath><clipPath
       clipPathUnits="userSpaceOnUse"
       id="clipPath6029-74"><g
         inkscape:label="Clip"
         id="use6031-813" /></clipPath><clipPath
       clipPathUnits="userSpaceOnUse"
       id="clipPath6029-39"><g
         inkscape:label="Clip"
         id="use6031-52" /></clipPath><clipPath
       clipPathUnits="userSpaceOnUse"
       id="clipPath6029-925"><g
         inkscape:label="Clip"
         id="use6031-47" /></clipPath><clipPath
       clipPathUnits="userSpaceOnUse"
       id="clipPath6029-47"><g
         inkscape:label="Clip"
         id="use6031-24" /></clipPath><clipPath
       clipPathUnits="userSpaceOnUse"
       id="clipPath6029-36"><g
         inkscape:label="Clip"
         id="use6031-38" /></clipPath><clipPath
       clipPathUnits="userSpaceOnUse"
       id="clipPath6029-682"><g
         inkscape:label="Clip"
         id="use6031-477" /></clipPath><clipPath
       clipPathUnits="userSpaceOnUse"
       id="clipPath6029-20"><g
         inkscape:label="Clip"
         id="use6031-84" /></clipPath><clipPath
       clipPathUnits="userSpaceOnUse"
       id="clipPath6029-04"><g
         inkscape:label="Clip"
         id="use6031-18" /></clipPath><clipPath
       clipPathUnits="userSpaceOnUse"
       id="clipPath6029-540"><g
         inkscape:label="Clip"
         id="use6031-938" /></clipPath><clipPath
       clipPathUnits="userSpaceOnUse"
       id="clipPath6029-51"><g
         inkscape:label="Clip"
         id="use6031-163" /></clipPath><clipPath
       clipPathUnits="userSpaceOnUse"
       id="clipPath6029-91"><g
         inkscape:label="Clip"
         id="use6031-680" /></clipPath><clipPath
       clipPathUnits="userSpaceOnUse"
       id="clipPath6029-41"><g
         inkscape:label="Clip"
         id="use6031-454" /></clipPath><clipPath
       clipPathUnits="userSpaceOnUse"
       id="clipPath6029-309"><g
         inkscape:label="Clip"
         id="use6031-22" /></clipPath><clipPath
       clipPathUnits="userSpaceOnUse"
       id="clipPath6029-88"><g
         inkscape:label="Clip"
         id="use6031-63" /></clipPath><clipPath
       clipPathUnits="userSpaceOnUse"
       id="clipPath6029-917"><g
         inkscape:label="Clip"
         id="use6031-34" /></clipPath><clipPath
       clipPathUnits="userSpaceOnUse"
       id="clipPath6029-42"><g
         inkscape:label="Clip"
         id="use6031-004" /></clipPath><clipPath
       clipPathUnits="userSpaceOnUse"
       id="clipPath6029-392"><g
         inkscape:label="Clip"
         id="use6031-60" /></clipPath><clipPath
       clipPathUnits="userSpaceOnUse"
       id="clipPath6029-677"><g
         inkscape:label="Clip"
         id="use6031-94" /></clipPath><clipPath
       clipPathUnits="userSpaceOnUse"
       id="clipPath6029-308"><g
         inkscape:label="Clip"
         id="use6031-01" /></clipPath><clipPath
       clipPathUnits="userSpaceOnUse"
       id="clipPath6029-53"><g
         inkscape:label="Clip"
         id="use6031-90" /></clipPath><clipPath
       clipPathUnits="userSpaceOnUse"
       id="clipPath6029-739"><g
         inkscape:label="Clip"
         id="use6031-386" /></clipPath><clipPath
       clipPathUnits="userSpaceOnUse"
       id="clipPath6029-59"><g
         inkscape:label="Clip"
         id="use6031-261" /></clipPath><clipPath
       clipPathUnits="userSpaceOnUse"
       id="clipPath6029-81"><g
         inkscape:label="Clip"
         id="use6031-902" /></clipPath><clipPath
       clipPathUnits="userSpaceOnUse"
       id="clipPath6029-17"><g
         inkscape:label="Clip"
         id="use6031-02" /></clipPath><clipPath
       clipPathUnits="userSpaceOnUse"
       id="clipPath6029-84"><g
         inkscape:label="Clip"
         id="use6031-108" /></clipPath><clipPath
       clipPathUnits="userSpaceOnUse"
       id="clipPath6029-514"><g
         inkscape:label="Clip"
         id="use6031-31" /></clipPath><clipPath
       clipPathUnits="userSpaceOnUse"
       id="clipPath6029-767"><g
         inkscape:label="Clip"
         id="use6031-74" /></clipPath><clipPath
       clipPathUnits="userSpaceOnUse"
       id="clipPath6029-209"><g
         inkscape:label="Clip"
         id="use6031-95" /></clipPath><clipPath
       clipPathUnits="userSpaceOnUse"
       id="clipPath6029-03"><g
         inkscape:label="Clip"
         id="use6031-78" /></clipPath><clipPath
       clipPathUnits="userSpaceOnUse"
       id="clipPath6029-776"><g
         inkscape:label="Clip"
         id="use6031-776" /></clipPath><clipPath
       clipPathUnits="userSpaceOnUse"
       id="clipPath6029-94"><g
         inkscape:label="Clip"
         id="use6031-440" /></clipPath><clipPath
       clipPathUnits="userSpaceOnUse"
       id="clipPath6029-90"><g
         inkscape:label="Clip"
         id="use6031-30" /></clipPath><clipPath
       clipPathUnits="userSpaceOnUse"
       id="clipPath6029-323"><g
         inkscape:label="Clip"
         id="use6031-996" /></clipPath><clipPath
       clipPathUnits="userSpaceOnUse"
       id="clipPath6029-45"><g
         inkscape:label="Clip"
         id="use6031-28" /></clipPath><clipPath
       clipPathUnits="userSpaceOnUse"
       id="clipPath6029-34"><g
         inkscape:label="Clip"
         id="use6031-769" /></clipPath></defs><metadata
     id="metadata7"><rdf:RDF><cc:Work
         rdf:about=""><dc:format>image/svg+xml</dc:format><dc:type
           rdf:resource="http://purl.org/dc/dcmitype/StillImage" /></cc:Work></rdf:RDF></metadata><g
     id="layer1"
     inkscape:groupmode="layer"
     inkscape:label="Layer 1"
     style="display:inline"><path
       fill="currentColor"
       d="m 460.8,621.81988 c 48.76191,0 94.19915,1.57193 136.31169,4.71579 42.11257,3.14385 66.71516,4.71579 73.8078,4.71579 16.81164,-1.87966 23.65746,-24.90869 23.93766,-36.68187 0,-17.96491 -27.26234,-31.66316 -81.78702,-41.09474 -54.52467,-9.43158 -104.83808,-14.14737 -150.94024,-14.14737 -46.98876,0 -97.52382,4.71579 -151.6052,14.14737 -54.08139,9.43158 -81.12208,23.12983 -81.12208,41.09474 0.93366,13.63217 9.73865,36.14235 23.93766,36.68187 0.88658,0 27.48398,-1.57194 79.7922,-4.71579 52.30822,-3.14386 94.86407,-4.71579 127.66753,-4.71579 z m 218.09871,108.4538 c 0,-25.15089 -73.58616,-56.14035 -218.09871,-56.14035 -144.51256,0 -215.43895,30.98946 -215.43895,56.14035 0,22.45614 72.25627,33.68421 216.76884,33.68421 144.51255,0 216.76882,-11.22807 216.76882,-33.68421 z M 461.46494,-12.126314 c -22.1645,0 -33.24675,10.778944 -33.24675,32.336844 0,23.35438 11.08225,35.03157 33.24675,35.03157 21.27791,0 31.91687,-11.67719 31.91687,-35.03157 0,-21.5579 -10.63896,-32.336844 -31.91687,-32.336844 z M 414.91948,153.6 c 0,-30.54036 -4.65454,-58.83509 -13.96363,-84.88421 -9.30909,-26.04912 -13.96364,-40.87017 -13.96364,-44.46316 0,-20.65965 7.31428,-38.399997 21.94285,-53.22105 C 423.56363,-43.789473 441.07359,-51.2 461.46494,-51.2 c 20.39134,0 37.67965,7.410527 51.86492,22.23158 14.1853,14.821053 21.27793,32.5614 21.27793,53.22105 0,3.59299 -4.87618,18.18948 -14.62857,43.78947 -9.75239,25.6 -14.62857,54.1193 -14.62857,85.5579 0,44.01403 9.75238,109.13684 29.25714,195.36842 47.87533,-102.4 71.81299,-179.64912 71.81299,-231.74737 0,-5.38946 -1.32986,-15.49473 -3.9896,-30.31578 -2.65974,-14.82105 -3.98961,-24.02807 -3.98961,-27.62106 0,-20.65965 7.09264,-38.40001 21.27791,-53.22106 14.18527,-14.821044 31.47359,-22.231566 51.86494,-22.231566 21.27791,0 39.23116,7.410522 53.85973,22.231566 14.62857,14.82105 21.94286,32.56141 21.94286,53.22106 0,16.16843 -3.10303,28.96842 -9.30908,38.4 -6.20608,9.43158 -13.29872,16.61754 -21.27794,21.5579 -7.97921,4.94035 -15.07186,16.8421 -21.27792,35.70526 -6.20605,18.86316 -9.30908,44.91228 -9.30908,78.14737 0,23.35438 2.21645,61.08069 6.64934,113.17894 57.62771,-60.18245 86.44157,-109.13683 86.44157,-146.86315 l -2.65973,-24.25264 c -2.65974,-16.16843 -3.98962,-25.6 -3.98962,-28.29473 0,-19.76141 7.31429,-37.2772 21.94285,-52.54738 14.62858,-15.27018 31.69524,-22.90526 51.20001,-22.90526 20.39133,0 38.12295,7.41052 53.19481,22.23158 15.07186,14.82105 22.60778,32.5614 22.60778,53.22106 0,36.82807 -20.39134,64.67368 -61.17402,83.53684 -1.77316,35.92982 -17.06666,197.99415 -47.21038,323.74854 0,8.0842 -16.62339,32.78596 -49.87014,74.10526 -33.24675,41.3193 -49.87013,34.26666 -49.87013,46.8421 35.98961,44.37077 35.98961,44.37077 37.23636,68.65147 v 21.55789 c 0,20.65965 -32.13853,34.80702 -96.41557,42.44211 C 590.01905,815.38246 525.52035,819.2 460.8,819.2 c -71.81298,0 -135.61319,-6.15556 -195.90065,-14.68889 -60.28743,-8.53333 -92.68115,-20.34268 -92.68115,-39.20585 v -21.55789 c 1.24674,-24.2807 1.24674,-24.2807 35.90647,-68.65147 0,-18.86316 -14.40693,-10.46316 -43.22078,-42.8 C 136.09005,599.95906 117.69352,573.90994 109.7143,554.14854 79.570571,430.19065 62.947186,268.12632 61.174026,230.4 20.391341,211.53684 0,183.69123 0,146.86316 0,126.2035 7.535931,108.46315 22.607793,93.6421 37.679653,78.82104 54.967965,71.41052 74.472726,71.41052 c 20.391342,0 37.901294,7.41052 52.529874,22.23158 14.62856,14.82105 21.94285,32.5614 21.94285,53.22106 0,0.89824 -1.10822,9.43158 -3.32467,25.6 -2.21646,16.16841 -3.32468,25.15087 -3.32468,26.94737 0,39.5228 28.37056,88.47718 85.11169,146.86315 4.43291,-39.5228 6.64936,-77.24911 6.64936,-113.17894 0,-32.33684 -3.10303,-58.1614 -9.30909,-77.47369 -6.20607,-19.31228 -13.29871,-31.4386 -21.27794,-36.37894 -7.97922,-4.94036 -15.07186,-12.35088 -21.27791,-22.23158 -6.20606,-9.88071 -9.30908,-22.45615 -9.30908,-37.72632 0,-20.65965 7.53592,-38.40001 22.60777,-53.22106 15.07187,-14.821044 32.80349,-22.231566 53.19482,-22.231566 20.39134,0 37.90129,7.410522 52.52986,22.231566 14.62857,14.82105 21.94285,32.56141 21.94285,53.22106 l -3.98961,25.6 c -2.65974,17.06667 -3.9896,27.84562 -3.9896,32.33684 0,51.2 23.93766,128.44913 71.81299,231.74737 C 405.61038,267.22807 414.91948,202.10526 414.91948,153.6 Z m 430.87793,-39.07368 c -7.97922,0 -15.29351,3.14386 -21.94286,9.43158 -6.64935,6.28771 -9.97403,13.9228 -9.97403,22.90526 0,9.8807 3.10303,18.18948 9.30908,24.92632 6.20607,6.73683 13.74201,10.10525 22.60781,10.10525 22.16449,0 33.24674,-11.67719 33.24674,-35.03157 0,-21.55789 -11.08225,-32.33684 -33.24674,-32.33684 z M 671.58442,28.29473 c -8.8658,0 -16.40173,3.36843 -22.6078,10.10528 -6.20606,6.73685 -9.30909,14.59648 -9.30909,23.57893 0,8.98246 3.10303,16.8421 9.30909,23.57895 6.20607,6.73684 13.742,10.10527 22.6078,10.10527 23.05108,0 34.57661,-11.22807 34.57661,-33.68422 0,-22.45614 -11.52553,-33.68421 -34.57661,-33.68421 z m -422.8987,0 c -22.1645,0 -33.24675,11.22807 -33.24675,33.68421 0,22.45615 11.08225,33.68422 33.24675,33.68422 21.27792,0 31.91689,-11.22807 31.91689,-33.68422 0,-22.45614 -10.63897,-33.68421 -31.91689,-33.68421 z M 74.472726,114.52632 c -22.164501,0 -33.246751,10.77895 -33.246751,32.33684 0,23.35438 11.08225,35.03157 33.246751,35.03157 21.277923,0 31.916884,-11.67719 31.916884,-35.03157 0,-8.98246 -3.32468,-16.61755 -9.974025,-22.90526 -6.649351,-6.28772 -13.963638,-9.43158 -21.942859,-9.43158 z M 461.46494,200.7579 c -7.97922,49.40351 -16.84502,88.25263 -26.59742,116.54736 -9.75236,28.29473 -18.61817,48.28069 -26.59738,59.95789 -7.97923,11.6772 -12.85542,21.10878 -14.62859,28.29474 -4.43289,-5.38946 -11.96883,-14.37192 -22.60779,-26.94737 -10.63895,-12.57544 -17.28831,-21.10877 -19.94805,-25.59999 -2.65973,-4.49124 -7.75757,-12.35089 -15.2935,-23.57895 -7.53593,-11.22808 -13.52035,-22.23158 -17.95325,-33.01053 -4.4329,-10.77895 -10.19567,-25.15088 -17.2883,-43.11579 -7.09264,-17.96491 -14.62858,-38.62457 -22.6078,-61.97895 1.77316,12.57544 2.65975,25.6 2.65975,39.07369 0,42.21755 -7.53594,107.34036 -22.60781,195.36842 -47.87532,-28.74386 -94.42077,-74.55438 -139.63636,-137.43157 21.27793,106.89122 35.5321,252.56899 49.87015,260.42221 84.30738,-43.46907 204.16337,-58.67557 293.9013,-59.28419 120.57487,0 216.76881,21.10876 288.5818,63.3263 15.95846,-5.38948 33.0251,-147.6924 52.52986,-264.46432 -46.10215,64.67368 -92.20431,110.4842 -138.30649,137.43157 -15.07186,-78.14736 -22.60779,-139.67719 -22.60779,-184.58948 0,-11.6772 0.88657,-28.29473 2.65973,-49.85263 -13.2987,41.3193 -26.81904,76.12632 -40.56103,104.42106 -13.742,28.29474 -24.82424,47.38245 -33.24674,57.26316 -8.42252,9.8807 -16.62339,19.31228 -24.6026,28.29473 -7.97922,8.98246 -13.74199,17.06667 -17.28831,24.25263 -4.43293,-8.08421 -9.75241,-17.29122 -15.95846,-27.62105 -6.20605,-10.32982 -10.19566,-17.74034 -11.96883,-22.23158 -1.77314,-4.49122 -4.87617,-13.24912 -9.30909,-26.27368 -4.4329,-13.02456 -8.86579,-29.19298 -13.29869,-48.50527 -4.4329,-19.31228 -10.19566,-46.03509 -17.28831,-80.16841 z"
       id="path7922"
       style="stroke-width:1.33859"
       sodipodi:nodetypes="ssccsssccssssssssssssssssssssscssssssssssscccsssssccsccsssssccsccssssssscsssssssscsscsssssssssssssssssssssssssscsscssssscscccccccscssscssssc" /></g></svg>
