<?xml version="1.0" encoding="UTF-8" standalone="no"?>
<!-- Created with Inkscape (http://www.inkscape.org/) -->

<svg
   height="1024"
   width="1024"
   sodipodi:docname="u269B_atom.svg"
   version="1.1"
   id="svg4375"
   viewBox="0 0 1024 1024"
   inkscape:version="1.2.2 (732a01da63, 2022-12-09)"
   xml:space="preserve"
   xmlns:inkscape="http://www.inkscape.org/namespaces/inkscape"
   xmlns:sodipodi="http://sodipodi.sourceforge.net/DTD/sodipodi-0.dtd"
   xmlns="http://www.w3.org/2000/svg"
   xmlns:svg="http://www.w3.org/2000/svg"
   xmlns:rdf="http://www.w3.org/1999/02/22-rdf-syntax-ns#"
   xmlns:cc="http://creativecommons.org/ns#"
   xmlns:dc="http://purl.org/dc/elements/1.1/"><sodipodi:namedview
     id="base"
     pagecolor="#ffffff"
     bordercolor="#000000"
     borderopacity="0.3"
     inkscape:pageopacity="0.0"
     inkscape:pageshadow="2"
     inkscape:zoom="1"
     inkscape:cx="656"
     inkscape:cy="497.5"
     inkscape:document-units="px"
     inkscape:current-layer="layer1"
     showgrid="false"
     showguides="true"
     inkscape:window-width="2560"
     inkscape:window-height="1361"
     inkscape:window-x="-9"
     inkscape:window-y="136"
     inkscape:window-maximized="1"
     showborder="true"
     inkscape:showpageshadow="false"
     inkscape:pagecheckerboard="0"
     inkscape:deskcolor="#d1d1d1"
     inkscape:lockguides="true"><sodipodi:guide
       id="guide_baseline"
       inkscape:label="baseline"
       position="-100,204.8"
       orientation="0,1"
       inkscape:locked="true"
       inkscape:color="rgb(165,29,45)" /><sodipodi:guide
       id="guide_ascender"
       inkscape:label="ascender"
       position="-100,1024"
       orientation="0,1"
       inkscape:locked="true"
       inkscape:color="rgb(0,134,229)" /><sodipodi:guide
       id="guide_caps"
       inkscape:label="1/10 CAPS"
       position="-100,921.6"
       orientation="0,1"
       inkscape:locked="true"
       inkscape:color="rgb(165,29,45)" /><sodipodi:guide
       id="guide_xheight"
       inkscape:label="xheight"
       position="-100,716.8"
       orientation="0,1"
       inkscape:locked="true"
       inkscape:color="rgb(165,29,45)" /><sodipodi:guide
       id="guide_descender"
       inkscape:label="descender"
       position="-100,0"
       orientation="0,1"
       inkscape:locked="true"
       inkscape:color="rgb(0,134,229)" /><sodipodi:guide
       position="204.8,1049"
       orientation="-1,0"
       id="guide4387"
       inkscape:locked="true"
       inkscape:label="204.8"
       inkscape:color="rgb(0,134,229)" /><sodipodi:guide
       position="409.6,1049"
       orientation="-1,0"
       id="guide4389"
       inkscape:locked="true"
       inkscape:label="409.6"
       inkscape:color="rgb(0,134,229)" /><sodipodi:guide
       position="-100,819.2"
       orientation="0,1"
       id="guide4391"
       inkscape:locked="true"
       inkscape:label="2/10"
       inkscape:color="rgb(38,162,105)" /><sodipodi:guide
       position="-100,614.4"
       orientation="0,1"
       id="guide4393"
       inkscape:locked="true"
       inkscape:label="4/10"
       inkscape:color="rgb(38,162,105)" /><sodipodi:guide
       position="-100,512"
       orientation="0,1"
       id="guide4395"
       inkscape:locked="true"
       inkscape:label="5/10"
       inkscape:color="rgb(38,162,105)" /><sodipodi:guide
       position="-100,409.6"
       orientation="0,1"
       id="guide4397"
       inkscape:locked="true"
       inkscape:label="6/10"
       inkscape:color="rgb(38,162,105)" /><sodipodi:guide
       position="-100,307.2"
       orientation="0,1"
       id="guide4399"
       inkscape:locked="true"
       inkscape:label="7/10"
       inkscape:color="rgb(38,162,105)" /><sodipodi:guide
       position="-100,102.4"
       orientation="0,1"
       id="guide4401"
       inkscape:locked="true"
       inkscape:label="1/10"
       inkscape:color="rgb(38,162,105)" /><sodipodi:guide
       position="614.4,1049"
       orientation="-1,0"
       id="guide4403"
       inkscape:locked="true"
       inkscape:label="614.4"
       inkscape:color="rgb(0,134,229)" /><sodipodi:guide
       position="819.2,1049"
       orientation="-1,0"
       id="guide4405"
       inkscape:locked="true"
       inkscape:label="819.2"
       inkscape:color="rgb(0,134,229)" /><sodipodi:guide
       position="1024,1049"
       orientation="-1,0"
       id="guide4407"
       inkscape:locked="true"
       inkscape:label="1024"
       inkscape:color="rgb(0,134,229)" /><sodipodi:guide
       position="-100,871.4"
       orientation="0,1"
       id="guide8061"
       inkscape:locked="true"
       inkscape:label="1.5/10"
       inkscape:color="rgb(0,134,229)" /><sodipodi:guide
       position="-100,256"
       orientation="0,1"
       id="guide8063"
       inkscape:locked="true"
       inkscape:label="7.5/10"
       inkscape:color="rgb(143,240,164)" /><sodipodi:guide
       position="102.4,1049"
       orientation="-1,0"
       id="guide8093"
       inkscape:locked="true"
       inkscape:label="102.4"
       inkscape:color="rgb(0,134,229)" /><sodipodi:guide
       position="307.2,1049"
       orientation="-1,0"
       id="guide8095"
       inkscape:locked="true"
       inkscape:label="307.2"
       inkscape:color="rgb(0,134,229)" /><sodipodi:guide
       position="512,1049"
       orientation="-1,0"
       id="guide8099"
       inkscape:locked="true"
       inkscape:label="512"
       inkscape:color="rgb(0,134,229)" /><sodipodi:guide
       position="716.8,1049"
       orientation="-1,0"
       id="guide8101"
       inkscape:locked="true"
       inkscape:label="716.8"
       inkscape:color="rgb(0,134,229)" /><sodipodi:guide
       position="921.6,1049"
       orientation="-1,0"
       id="guide8167"
       inkscape:locked="true"
       inkscape:label="921.6"
       inkscape:color="rgb(0,134,229)" /><sodipodi:guide
       position="-100,768"
       orientation="0,1"
       id="guide8258"
       inkscape:locked="true"
       inkscape:label=""
       inkscape:color="rgb(229,165,10)" /><sodipodi:guide
       position="153.6,1074"
       orientation="-1,0"
       id="guide8297"
       inkscape:locked="true"
       inkscape:label=""
       inkscape:color="rgb(0,134,229)" /><sodipodi:guide
       position="-100,564"
       orientation="0,1"
       id="guide8299"
       inkscape:locked="true"
       inkscape:label=""
       inkscape:color="rgb(0,134,229)" /><sodipodi:guide
       position="-100,665.6"
       orientation="0,1"
       id="guide8301"
       inkscape:locked="true"
       inkscape:label=""
       inkscape:color="rgb(0,134,229)" /><sodipodi:guide
       position="358.4,1074"
       orientation="-1,0"
       id="guide8303"
       inkscape:locked="true"
       inkscape:label=""
       inkscape:color="rgb(0,134,229)" /><sodipodi:guide
       position="-100,460.8"
       orientation="0,1"
       id="guide8344"
       inkscape:locked="true"
       inkscape:label=""
       inkscape:color="rgb(0,134,229)" /><sodipodi:guide
       position="-100,358.4"
       orientation="0,1"
       id="guide8346"
       inkscape:locked="true"
       inkscape:label=""
       inkscape:color="rgb(0,134,229)" /><sodipodi:guide
       position="0,1049"
       orientation="-1,0"
       id="guide9752"
       inkscape:locked="true"
       inkscape:label="0"
       inkscape:color="rgb(0,134,229)" /><sodipodi:guide
       position="256,1074"
       orientation="-1,0"
       id="guide11115"
       inkscape:locked="true"
       inkscape:label=""
       inkscape:color="rgb(0,134,229)" /><sodipodi:guide
       position="563.2,1074"
       orientation="-1,0"
       id="guide11117"
       inkscape:locked="true"
       inkscape:label=""
       inkscape:color="rgb(0,134,229)" /><sodipodi:guide
       position="665.6,1074"
       orientation="-1,0"
       id="guide12436"
       inkscape:locked="true"
       inkscape:label=""
       inkscape:color="rgb(0,134,229)" /><sodipodi:guide
       position="460.8,1074"
       orientation="-1,0"
       id="guide12704"
       inkscape:locked="true"
       inkscape:label=""
       inkscape:color="rgb(0,134,229)" /><sodipodi:guide
       position="-100,153.6"
       orientation="0,1"
       id="guide13358"
       inkscape:locked="true"
       inkscape:label="8.5/10"
       inkscape:color="rgb(0,134,229)" /><sodipodi:guide
       position="-100,128"
       orientation="0,1"
       id="guide13360"
       inkscape:locked="true"
       inkscape:label=""
       inkscape:color="rgb(0,134,229)" /><sodipodi:guide
       position="-100,51.2"
       orientation="0,1"
       id="guide30306"
       inkscape:locked="true"
       inkscape:label=""
       inkscape:color="rgb(0,134,229)" /><sodipodi:guide
       position="51.2,1074"
       orientation="-1,0"
       id="guide417"
       inkscape:locked="true"
       inkscape:label=""
       inkscape:color="rgb(0,134,229)" /><sodipodi:guide
       position="768,1074"
       orientation="-1,0"
       id="guide615"
       inkscape:locked="true"
       inkscape:label=""
       inkscape:color="rgb(0,134,229)" /><sodipodi:guide
       position="-100,972.8"
       orientation="0,1"
       id="guide9421"
       inkscape:locked="true"
       inkscape:label=""
       inkscape:color="rgb(0,134,229)" /><sodipodi:guide
       position="-100,1126.4"
       orientation="0,1"
       id="guide8432"
       inkscape:locked="true"
       inkscape:label=""
       inkscape:color="rgb(0,134,229)" /><sodipodi:guide
       position="-100,1075.2"
       orientation="0,1"
       id="guide8434"
       inkscape:locked="true"
       inkscape:label=""
       inkscape:color="rgb(0,134,229)" /><sodipodi:guide
       position="870.4,1074"
       orientation="-1,0"
       id="guide8436"
       inkscape:locked="true"
       inkscape:label=""
       inkscape:color="rgb(0,134,229)" /></sodipodi:namedview><defs
     id="defs4"><linearGradient
       id="linearGradient8000"
       inkscape:swatch="solid"><stop
         style="stop-color:#000000;stop-opacity:1;"
         offset="0"
         id="stop7998" /></linearGradient><clipPath
       clipPathUnits="userSpaceOnUse"
       id="clipPath6029"><g
         inkscape:label="Clip"
         id="use6031" /></clipPath><clipPath
       clipPathUnits="userSpaceOnUse"
       id="clipPath6029-3"><g
         inkscape:label="Clip"
         id="use6031-9" /></clipPath><clipPath
       clipPathUnits="userSpaceOnUse"
       id="clipPath6029-85"><g
         inkscape:label="Clip"
         id="use6031-4" /></clipPath><clipPath
       clipPathUnits="userSpaceOnUse"
       id="clipPath6029-9"><g
         inkscape:label="Clip"
         id="use6031-8" /></clipPath><clipPath
       clipPathUnits="userSpaceOnUse"
       id="clipPath6029-8"><g
         inkscape:label="Clip"
         id="use6031-0" /></clipPath><clipPath
       clipPathUnits="userSpaceOnUse"
       id="clipPath8428"><g
         inkscape:label="Clip"
         id="use8430" /></clipPath><clipPath
       clipPathUnits="userSpaceOnUse"
       id="clipPath6029-5"><g
         inkscape:label="Clip"
         id="use6031-6" /></clipPath><clipPath
       clipPathUnits="userSpaceOnUse"
       id="clipPath6029-83"><g
         inkscape:label="Clip"
         id="use6031-62" /></clipPath><clipPath
       clipPathUnits="userSpaceOnUse"
       id="clipPath6029-6"><g
         inkscape:label="Clip"
         id="use6031-3" /></clipPath><clipPath
       clipPathUnits="userSpaceOnUse"
       id="clipPath6029-7"><g
         inkscape:label="Clip"
         id="use6031-99" /></clipPath><clipPath
       clipPathUnits="userSpaceOnUse"
       id="clipPath6029-30"><g
         inkscape:label="Clip"
         id="use6031-5" /></clipPath><clipPath
       clipPathUnits="userSpaceOnUse"
       id="clipPath6029-99"><g
         inkscape:label="Clip"
         id="use6031-05" /></clipPath><clipPath
       clipPathUnits="userSpaceOnUse"
       id="clipPath6029-4"><g
         inkscape:label="Clip"
         id="use6031-39" /></clipPath><clipPath
       clipPathUnits="userSpaceOnUse"
       id="clipPath6029-68"><g
         inkscape:label="Clip"
         id="use6031-7" /></clipPath><clipPath
       clipPathUnits="userSpaceOnUse"
       id="clipPath6029-92"><g
         inkscape:label="Clip"
         id="use6031-76" /></clipPath><clipPath
       clipPathUnits="userSpaceOnUse"
       id="clipPath6029-73"><g
         inkscape:label="Clip"
         id="use6031-75" /></clipPath><clipPath
       clipPathUnits="userSpaceOnUse"
       id="clipPath6029-1"><g
         inkscape:label="Clip"
         id="use6031-1" /></clipPath><clipPath
       clipPathUnits="userSpaceOnUse"
       id="clipPath6029-37"><g
         inkscape:label="Clip"
         id="use6031-2" /></clipPath><clipPath
       clipPathUnits="userSpaceOnUse"
       id="clipPath6029-67"><g
         inkscape:label="Clip"
         id="use6031-81" /></clipPath><clipPath
       clipPathUnits="userSpaceOnUse"
       id="clipPath6029-76"><g
         inkscape:label="Clip"
         id="use6031-766" /></clipPath><clipPath
       clipPathUnits="userSpaceOnUse"
       id="clipPath6029-685"><g
         inkscape:label="Clip"
         id="use6031-19" /></clipPath><clipPath
       clipPathUnits="userSpaceOnUse"
       id="clipPath6029-33"><g
         inkscape:label="Clip"
         id="use6031-37" /></clipPath><clipPath
       clipPathUnits="userSpaceOnUse"
       id="clipPath6029-40"><g
         inkscape:label="Clip"
         id="use6031-46" /></clipPath><clipPath
       clipPathUnits="userSpaceOnUse"
       id="clipPath6029-764"><g
         inkscape:label="Clip"
         id="use6031-29" /></clipPath><clipPath
       clipPathUnits="userSpaceOnUse"
       id="clipPath6029-44"><g
         inkscape:label="Clip"
         id="use6031-00" /></clipPath><clipPath
       clipPathUnits="userSpaceOnUse"
       id="clipPath6029-77"><g
         inkscape:label="Clip"
         id="use6031-68" /></clipPath><clipPath
       clipPathUnits="userSpaceOnUse"
       id="clipPath6029-31"><g
         inkscape:label="Clip"
         id="use6031-86" /></clipPath><clipPath
       clipPathUnits="userSpaceOnUse"
       id="clipPath6029-62"><g
         inkscape:label="Clip"
         id="use6031-58" /></clipPath><clipPath
       clipPathUnits="userSpaceOnUse"
       id="clipPath6029-56"><g
         inkscape:label="Clip"
         id="use6031-77" /></clipPath><clipPath
       clipPathUnits="userSpaceOnUse"
       id="clipPath6029-18"><g
         inkscape:label="Clip"
         id="use6031-26" /></clipPath><clipPath
       clipPathUnits="userSpaceOnUse"
       id="clipPath6029-2"><g
         inkscape:label="Clip"
         id="use6031-91" /></clipPath><clipPath
       clipPathUnits="userSpaceOnUse"
       id="clipPath6029-0"><g
         inkscape:label="Clip"
         id="use6031-17" /></clipPath><clipPath
       clipPathUnits="userSpaceOnUse"
       id="clipPath6029-373"><g
         inkscape:label="Clip"
         id="use6031-80" /></clipPath><clipPath
       clipPathUnits="userSpaceOnUse"
       id="clipPath6029-98"><g
         inkscape:label="Clip"
         id="use6031-773" /></clipPath><clipPath
       clipPathUnits="userSpaceOnUse"
       id="clipPath6029-24"><g
         inkscape:label="Clip"
         id="use6031-44" /></clipPath><clipPath
       clipPathUnits="userSpaceOnUse"
       id="clipPath6029-185"><g
         inkscape:label="Clip"
         id="use6031-61" /></clipPath><clipPath
       clipPathUnits="userSpaceOnUse"
       id="clipPath6029-87"><g
         inkscape:label="Clip"
         id="use6031-79" /></clipPath><clipPath
       clipPathUnits="userSpaceOnUse"
       id="clipPath6029-19"><g
         inkscape:label="Clip"
         id="use6031-45" /></clipPath><clipPath
       clipPathUnits="userSpaceOnUse"
       id="clipPath6029-52"><g
         inkscape:label="Clip"
         id="use6031-25" /></clipPath><clipPath
       clipPathUnits="userSpaceOnUse"
       id="clipPath6029-79"><g
         inkscape:label="Clip"
         id="use6031-59" /></clipPath><clipPath
       clipPathUnits="userSpaceOnUse"
       id="clipPath6029-60"><g
         inkscape:label="Clip"
         id="use6031-50" /></clipPath><clipPath
       clipPathUnits="userSpaceOnUse"
       id="clipPath6029-440"><g
         inkscape:label="Clip"
         id="use6031-056" /></clipPath><clipPath
       clipPathUnits="userSpaceOnUse"
       id="clipPath6029-65"><g
         inkscape:label="Clip"
         id="use6031-97" /></clipPath><clipPath
       clipPathUnits="userSpaceOnUse"
       id="clipPath6029-768"><g
         inkscape:label="Clip"
         id="use6031-35" /></clipPath><clipPath
       clipPathUnits="userSpaceOnUse"
       id="clipPath6029-404"><g
         inkscape:label="Clip"
         id="use6031-43" /></clipPath><clipPath
       clipPathUnits="userSpaceOnUse"
       id="clipPath6029-306"><g
         inkscape:label="Clip"
         id="use6031-376" /></clipPath><clipPath
       clipPathUnits="userSpaceOnUse"
       id="clipPath6029-71"><g
         inkscape:label="Clip"
         id="use6031-66" /></clipPath><clipPath
       clipPathUnits="userSpaceOnUse"
       id="clipPath6029-731"><g
         inkscape:label="Clip"
         id="use6031-626" /></clipPath><clipPath
       clipPathUnits="userSpaceOnUse"
       id="clipPath6029-23"><g
         inkscape:label="Clip"
         id="use6031-811" /></clipPath><clipPath
       clipPathUnits="userSpaceOnUse"
       id="clipPath6029-198"><g
         inkscape:label="Clip"
         id="use6031-16" /></clipPath><clipPath
       clipPathUnits="userSpaceOnUse"
       id="clipPath6029-653"><g
         inkscape:label="Clip"
         id="use6031-6268" /></clipPath><clipPath
       clipPathUnits="userSpaceOnUse"
       id="clipPath6029-54"><g
         inkscape:label="Clip"
         id="use6031-10" /></clipPath><clipPath
       clipPathUnits="userSpaceOnUse"
       id="clipPath6029-32"><g
         inkscape:label="Clip"
         id="use6031-175" /></clipPath><clipPath
       clipPathUnits="userSpaceOnUse"
       id="clipPath6029-21"><g
         inkscape:label="Clip"
         id="use6031-23" /></clipPath><clipPath
       clipPathUnits="userSpaceOnUse"
       id="clipPath6029-49"><g
         inkscape:label="Clip"
         id="use6031-93" /></clipPath><clipPath
       clipPathUnits="userSpaceOnUse"
       id="clipPath6029-74"><g
         inkscape:label="Clip"
         id="use6031-813" /></clipPath><clipPath
       clipPathUnits="userSpaceOnUse"
       id="clipPath6029-39"><g
         inkscape:label="Clip"
         id="use6031-52" /></clipPath><clipPath
       clipPathUnits="userSpaceOnUse"
       id="clipPath6029-925"><g
         inkscape:label="Clip"
         id="use6031-47" /></clipPath><clipPath
       clipPathUnits="userSpaceOnUse"
       id="clipPath6029-47"><g
         inkscape:label="Clip"
         id="use6031-24" /></clipPath><clipPath
       clipPathUnits="userSpaceOnUse"
       id="clipPath6029-36"><g
         inkscape:label="Clip"
         id="use6031-38" /></clipPath><clipPath
       clipPathUnits="userSpaceOnUse"
       id="clipPath6029-682"><g
         inkscape:label="Clip"
         id="use6031-477" /></clipPath><clipPath
       clipPathUnits="userSpaceOnUse"
       id="clipPath6029-20"><g
         inkscape:label="Clip"
         id="use6031-84" /></clipPath><clipPath
       clipPathUnits="userSpaceOnUse"
       id="clipPath6029-04"><g
         inkscape:label="Clip"
         id="use6031-18" /></clipPath><clipPath
       clipPathUnits="userSpaceOnUse"
       id="clipPath6029-540"><g
         inkscape:label="Clip"
         id="use6031-938" /></clipPath><clipPath
       clipPathUnits="userSpaceOnUse"
       id="clipPath6029-51"><g
         inkscape:label="Clip"
         id="use6031-163" /></clipPath><clipPath
       clipPathUnits="userSpaceOnUse"
       id="clipPath6029-91"><g
         inkscape:label="Clip"
         id="use6031-680" /></clipPath><clipPath
       clipPathUnits="userSpaceOnUse"
       id="clipPath6029-41"><g
         inkscape:label="Clip"
         id="use6031-454" /></clipPath><clipPath
       clipPathUnits="userSpaceOnUse"
       id="clipPath6029-309"><g
         inkscape:label="Clip"
         id="use6031-22" /></clipPath><clipPath
       clipPathUnits="userSpaceOnUse"
       id="clipPath6029-88"><g
         inkscape:label="Clip"
         id="use6031-63" /></clipPath><clipPath
       clipPathUnits="userSpaceOnUse"
       id="clipPath6029-917"><g
         inkscape:label="Clip"
         id="use6031-34" /></clipPath><clipPath
       clipPathUnits="userSpaceOnUse"
       id="clipPath6029-42"><g
         inkscape:label="Clip"
         id="use6031-004" /></clipPath><clipPath
       clipPathUnits="userSpaceOnUse"
       id="clipPath6029-392"><g
         inkscape:label="Clip"
         id="use6031-60" /></clipPath><clipPath
       clipPathUnits="userSpaceOnUse"
       id="clipPath6029-677"><g
         inkscape:label="Clip"
         id="use6031-94" /></clipPath><clipPath
       clipPathUnits="userSpaceOnUse"
       id="clipPath6029-308"><g
         inkscape:label="Clip"
         id="use6031-01" /></clipPath><clipPath
       clipPathUnits="userSpaceOnUse"
       id="clipPath6029-53"><g
         inkscape:label="Clip"
         id="use6031-90" /></clipPath><clipPath
       clipPathUnits="userSpaceOnUse"
       id="clipPath6029-739"><g
         inkscape:label="Clip"
         id="use6031-386" /></clipPath><clipPath
       clipPathUnits="userSpaceOnUse"
       id="clipPath6029-59"><g
         inkscape:label="Clip"
         id="use6031-261" /></clipPath><clipPath
       clipPathUnits="userSpaceOnUse"
       id="clipPath6029-81"><g
         inkscape:label="Clip"
         id="use6031-902" /></clipPath><clipPath
       clipPathUnits="userSpaceOnUse"
       id="clipPath6029-17"><g
         inkscape:label="Clip"
         id="use6031-02" /></clipPath><clipPath
       clipPathUnits="userSpaceOnUse"
       id="clipPath6029-84"><g
         inkscape:label="Clip"
         id="use6031-108" /></clipPath><clipPath
       clipPathUnits="userSpaceOnUse"
       id="clipPath6029-514"><g
         inkscape:label="Clip"
         id="use6031-31" /></clipPath><clipPath
       clipPathUnits="userSpaceOnUse"
       id="clipPath6029-767"><g
         inkscape:label="Clip"
         id="use6031-74" /></clipPath><clipPath
       clipPathUnits="userSpaceOnUse"
       id="clipPath6029-209"><g
         inkscape:label="Clip"
         id="use6031-95" /></clipPath><clipPath
       clipPathUnits="userSpaceOnUse"
       id="clipPath6029-03"><g
         inkscape:label="Clip"
         id="use6031-78" /></clipPath><clipPath
       clipPathUnits="userSpaceOnUse"
       id="clipPath6029-776"><g
         inkscape:label="Clip"
         id="use6031-776" /></clipPath><clipPath
       clipPathUnits="userSpaceOnUse"
       id="clipPath6029-94"><g
         inkscape:label="Clip"
         id="use6031-440" /></clipPath><clipPath
       clipPathUnits="userSpaceOnUse"
       id="clipPath6029-90"><g
         inkscape:label="Clip"
         id="use6031-30" /></clipPath><clipPath
       clipPathUnits="userSpaceOnUse"
       id="clipPath6029-323"><g
         inkscape:label="Clip"
         id="use6031-996" /></clipPath><clipPath
       clipPathUnits="userSpaceOnUse"
       id="clipPath6029-45"><g
         inkscape:label="Clip"
         id="use6031-28" /></clipPath><clipPath
       clipPathUnits="userSpaceOnUse"
       id="clipPath6029-34"><g
         inkscape:label="Clip"
         id="use6031-769" /></clipPath></defs><metadata
     id="metadata7"><rdf:RDF><cc:Work
         rdf:about=""><dc:format>image/svg+xml</dc:format><dc:type
           rdf:resource="http://purl.org/dc/dcmitype/StillImage" /></cc:Work></rdf:RDF></metadata><g
     id="layer1"
     inkscape:groupmode="layer"
     inkscape:label="Layer 1"
     style="display:inline"><g
       id="path751601"><path
         style="color:#000000;fill:currentColor;stroke-width:29.0542;-inkscape-stroke:none"
         d="m 745.40423,184.82204 c 46.40492,0 84.95088,8.18083 115.63804,24.54251 30.68707,16.36165 46.03061,41.57199 46.03061,75.63099 0,50.08672 -33.3067,108.85517 -99.92019,176.30532 66.61349,66.78234 99.92019,125.55076 99.92019,176.30535 0,66.78232 -55.76067,100.17348 -167.28212,100.17348 -30.68717,0 -65.86505,-3.67304 -105.53375,-11.01909 -43.41099,120.20819 -101.41717,180.31228 -174.01835,180.31228 -71.10431,0 -128.36195,-60.10409 -171.77293,-180.31228 -38.17184,8.01388 -74.47237,12.02081 -108.90183,12.02081 -110.024542,0 -165.036798,-33.72507 -165.036798,-101.1752 0,-48.7511 33.306735,-107.51955 99.920188,-176.30535 C 47.833837,393.85071 14.527102,335.75008 14.527102,286.99899 c 0,-68.11796 53.889562,-102.17695 161.668648,-102.17695 34.42944,0 71.1043,4.00694 110.02457,12.02083 C 332.62515,75.299029 390.63131,14.527113 460.23866,14.527113 c 71.85275,0 129.85883,60.771916 174.01835,182.315757 40.41713,-8.01389 77.46621,-12.02083 111.14722,-12.02083 z m 121.2515,116.20123 c 0,-61.43972 -51.26995,-92.15958 -153.80977,-92.15958 -22.45397,0 -46.40492,2.00344 -71.85274,6.0104 12.72391,40.73721 22.45398,86.4831 29.19021,137.23766 44.90795,30.71987 84.20232,61.10583 117.88335,91.15788 52.39261,-52.75804 78.58895,-100.17349 78.58895,-142.24636 z M 610.68028,199.84807 C 570.26313,103.68152 520.11593,55.598241 460.23866,55.598241 c -59.12884,0 -108.90181,48.083279 -149.31896,144.249829 45.6564,8.6817 95.05516,24.37553 148.19622,47.08152 56.13498,-23.37381 106.6564,-39.06764 151.56436,-47.08152 z m 37.04907,139.24114 c -8.23309,-38.73375 -17.96315,-78.80314 -29.1901,-120.20818 -37.4233,7.34605 -82.33134,19.70078 -134.72395,37.06419 l 83.07977,37.06418 c 29.93864,15.35994 56.88344,30.71987 80.83428,46.07981 z m 126.86498,122.21165 c -23.20242,-21.37033 -56.50911,-49.08501 -99.92019,-83.14398 2.24541,38.06591 3.36816,65.44665 3.36816,82.14225 0,34.72682 -1.87119,62.77539 -5.61357,84.14573 26.94479,-20.0347 61.00003,-47.74937 102.1656,-83.144 z m 93.18407,158.2741 c 0,-38.73373 -25.82205,-85.81528 -77.46622,-141.2446 -30.68717,28.04856 -70.73009,59.10235 -120.12875,93.16133 -6.73623,48.08328 -16.4663,93.49526 -29.19021,136.23595 26.9448,4.00694 51.26986,6.01041 72.9754,6.01041 102.53992,0 153.80978,-31.3877 153.80978,-94.16309 z M 434.41653,257.94869 c -46.40483,-18.69905 -90.19013,-31.38771 -131.3558,-38.06593 -8.2331,22.03816 -17.96316,62.44147 -29.1901,121.20991 38.92017,-28.04856 92.43553,-55.76323 160.5459,-83.14398 z m 221.17179,203.35217 c 0,-39.40157 -1.87119,-72.1249 -5.61356,-98.17001 -77.84043,-48.7511 -141.08587,-80.80663 -189.7361,-96.16655 -59.12884,18.69905 -121.99995,50.75458 -188.61344,96.16655 -5.23924,44.07633 -7.85887,76.79968 -7.85887,98.17001 0,20.0347 2.61963,53.42587 7.85887,100.17349 67.36192,40.06939 130.23305,72.12492 188.61344,96.16655 50.14721,-16.69559 113.39264,-49.41892 189.7361,-98.17002 3.74237,-25.37729 5.61356,-58.10064 5.61356,-98.17002 z m -7.85897,122.21165 c -71.10421,40.73722 -124.9938,68.11797 -161.66865,82.14226 53.14114,19.36687 97.30066,32.05551 132.47855,38.06593 11.97547,-38.73376 21.70545,-78.80314 29.1901,-120.20819 z M 206.5086,209.86541 c -46.40483,0 -83.4539,7.67998 -111.147126,23.0399 -27.693285,15.35994 -41.539899,38.73375 -41.539899,70.12144 0,42.07287 26.196266,89.82224 78.588965,143.24809 35.17789,-33.39116 75.22082,-64.11104 120.12878,-92.15961 4.4908,-46.07981 14.22086,-91.8257 29.19018,-137.23767 -25.44782,-4.67477 -50.52152,-7.01215 -75.2209,-7.01215 z m 43.78529,166.28799 c -41.16566,28.7164 -75.59501,57.7667 -103.28824,87.15094 32.93247,30.71987 66.98771,57.76671 102.1656,81.14052 -2.99395,-31.38769 -4.49083,-59.10236 -4.49083,-83.144 0,-33.39115 1.8712,-61.77363 5.61347,-85.14746 z m 186.36804,289.50137 c -71.85274,-31.3877 -126.11653,-59.43625 -162.7913,-84.14573 8.98153,54.76151 19.08582,95.49873 30.31286,122.21166 38.17172,-6.01042 82.33124,-18.69906 132.47844,-38.06593 z m 174.01835,55.09543 c -45.6564,-8.0139 -95.05516,-22.70599 -148.19622,-44.07634 -59.87726,22.706 -110.39878,37.3981 -151.56436,44.07634 41.16558,97.50219 90.93857,146.25331 149.31896,146.25331 61.37425,0 111.52146,-48.75112 150.44162,-146.25331 z M 281.7295,707.72764 C 267.50862,663.6513 257.77856,618.23933 252.53932,571.49169 212.12217,546.11441 171.33072,515.06063 130.16515,478.33036 79.269405,533.75968 53.821575,581.50905 53.821575,621.57844 c 0,61.43974 51.269965,92.15961 153.809785,92.15961 22.45397,0 47.15335,-2.00347 74.09814,-6.01041 z m 179.63182,-315.5465 c 20.95709,0 39.6687,7.01216 56.13499,21.03644 16.46629,14.0243 24.69938,30.38597 24.69938,49.08501 0,18.03124 -8.23309,34.05899 -24.69938,48.08329 -16.46629,14.02428 -35.1779,21.03641 -56.13499,21.03641 -20.20858,0 -39.10737,-6.84519 -56.69631,-20.53556 -17.58896,-13.69038 -26.38337,-29.88509 -26.38337,-48.58414 0,-20.03469 8.42019,-36.73027 25.2607,-50.08674 16.84051,-13.35647 36.11354,-20.03471 57.81898,-20.03471 z"
         id="path756870" /><path
         id="path756872"
         style="color:#000000;fill:#000000;-inkscape-stroke:none"
         d="m 460.23828,0 c -39.03119,0 -75.21195,17.590939 -106.21875,50.076172 -29.07243,30.458635 -54.34893,74.023618 -76.875,130.343748 -35.30853,-6.60657 -69.02059,-10.125 -100.94922,-10.125 -55.41947,0 -98.369816,8.42489 -129.011716,27.79102 C 16.54169,217.45206 0,249.10833 0,286.99805 0,339.60715 33.103828,396.89338 94.566406,461.39258 33.078951,527.12093 0,584.96898 0,637.60547 c 0,37.6743 17.008336,69.14971 48.193359,88.26758 31.185028,19.11786 74.874821,27.43554 131.371091,27.43554 31.79312,0 65.05884,-3.4926 99.63086,-10.05078 21.15159,55.56667 45.54294,98.61957 74.25391,128.75781 30.70011,32.22632 67.14388,49.58399 106.78906,49.58399 40.30922,0 77.30225,-17.28654 108.4082,-49.51758 29.12859,-30.18207 53.75383,-73.33981 74.95704,-129.03711 35.43165,6.03435 67.58439,9.26172 96.1875,9.26172 57.2103,0 101.38136,-8.21884 132.92382,-27.10742 31.54251,-18.88858 48.88477,-50.1596 48.88477,-87.59375 0,-54.21814 -33.03231,-112.34979 -94.45117,-176.34766 61.41691,-64.55721 94.45117,-122.58345 94.45117,-176.26172 0,-38.42176 -19.34303,-70.12074 -53.72266,-88.45117 -33.36951,-17.79185 -74.36064,-26.25 -122.47265,-26.25 -31.35035,0 -65.38386,3.531 -101.86328,10.15235 C 622.01572,124.15706 597.24237,80.565488 568.14062,50.076172 537.06924,17.523216 500.26005,0 460.23828,0 Z m 0,70.125 c 26.04996,0 49.47626,9.979034 72.46484,32.02148 20.22298,19.39065 39.58827,48.35451 57.375,86.9668 -39.89622,8.58889 -83.55901,22.78643 -130.89843,42.19141 -45.02348,-18.91104 -87.63218,-33.05228 -127.73047,-42.03516 17.79425,-38.7049 37.10609,-67.74161 57.20703,-87.16015 C 411.47521,80.065065 434.6118,70.125 460.23828,70.125 Z M 712.8457,223.39062 c 49.81894,0 85.91852,7.80942 107.89063,20.97461 21.97211,13.16524 31.39258,29.97929 31.39258,56.65821 0,33.70737 -20.73262,74.96295 -65.11914,122.18945 -30.39979,-26.30527 -64.78898,-52.75757 -103.39258,-79.40625 -5.88181,-42.34983 -13.93504,-81.23262 -24.07813,-116.85937 18.72888,-2.35418 36.52046,-3.55665 53.30664,-3.55665 z m -506.33789,1.00196 c 18.59298,0 37.4431,1.42207 56.54688,4.18359 -11.71943,38.77698 -19.91663,77.82989 -24.19336,117.14844 -38.75425,24.65157 -74.0572,51.29956 -105.67969,80.0625 -44.173452,-47.66793 -64.832031,-89.13955 -64.832031,-122.75977 0,-27.11514 10.035855,-44.09388 34.058591,-57.41796 24.68334,-13.6905 59.29785,-21.2168 104.09961,-21.2168 z m 401.45117,11.67187 c 6.56652,24.77294 12.50284,48.97106 17.97071,72.7461 -16.40208,-9.59528 -33.77812,-19.17045 -52.4043,-28.72657 l -0.35156,-0.17968 -48.63281,-21.69727 c 31.10216,-9.53004 58.7224,-16.77621 83.41796,-22.14258 z m -295.0332,0.54297 c 26.24129,4.96134 53.56168,12.14278 82.19336,22.0957 -38.55303,16.78528 -71.94736,33.76095 -100.14062,51.05274 6.70703,-32.18514 12.73702,-56.45961 17.94726,-73.14844 z m 147.28711,45.71289 c 44.86352,14.82847 103.93647,44.65007 176.16602,89.51172 3.03667,24.03424 4.68164,53.74125 4.68164,89.46875 0,36.33805 -1.64876,66.0684 -4.67383,89.53516 -70.61185,44.71411 -129.45877,75.0899 -175.71484,91.20703 -54.30746,-22.69834 -112.81169,-52.57086 -175.31836,-89.43359 -4.59432,-42.17971 -7.06055,-73.67964 -7.06055,-91.3086 0,-19.09078 2.3662,-49.53731 7.01953,-89.80664 61.99622,-41.69516 120.36459,-71.35837 174.90039,-89.17383 z m 1.14844,95.33399 c -24.6851,0 -47.6245,7.9351 -66.84571,23.17968 -19.61113,15.55392 -30.76171,37.3639 -30.76171,61.46875 0,23.25381 11.8696,44.38751 31.98828,60.04688 19.71688,15.34664 42.13018,23.59961 65.61914,23.59961 24.1974,0 46.77242,-8.50712 65.55469,-24.50391 18.80588,-16.01691 29.80664,-36.68938 29.80664,-59.14258 0,-22.96303 -10.91411,-44.05377 -29.80664,-60.14453 -18.78226,-15.99673 -41.35727,-24.5039 -65.55469,-24.5039 z M 232.1582,407.36133 c -1.29295,16.44135 -2.0039,34.27787 -2.0039,53.93945 0,16.20431 0.90343,34.49788 2.21679,53.75391 -21.85977,-15.87454 -43.24578,-33.40853 -64.24218,-52.31055 18.53292,-18.49908 39.7317,-36.97323 64.02929,-55.38281 z m 458.67969,2.1875 c 24.65769,19.75732 45.08886,36.8467 61.55859,51.41406 -22.68348,19.2989 -43.68334,36.78269 -61.56836,50.92969 1.13884,-15.37808 1.74219,-32.43772 1.74219,-51.59375 0,-11.67526 -0.70772,-29.72409 -1.73242,-50.75 z m -559.2207,89.18359 c 35.99084,31.27998 71.79285,58.42493 107.42773,81.2461 4.80162,39.45283 12.84158,77.97588 23.95703,115.58593 -19.91074,2.41112 -38.41369,3.64649 -55.37109,3.64649 -49.81894,0 -85.91851,-7.80941 -107.890626,-20.97461 -21.972106,-13.16524 -31.390625,-29.97928 -31.390625,-56.65821 0,-31.6636 20.180348,-73.40204 63.267581,-122.8457 z m 657.39453,0.004 c 43.79431,49.45181 64.24023,90.69223 64.24023,120.83789 0,27.43269 -9.555,44.7904 -31.51172,58.23242 -21.95667,13.44202 -57.98403,21.4043 -107.77148,21.4043 -16.41222,0 -34.65348,-1.24827 -54.54297,-3.67969 10.15456,-36.77068 18.24082,-75.31336 24.15039,-115.72266 41.93491,-29.1262 76.91469,-56.06218 105.43555,-81.07226 z M 294.01562,611.2207 c 28.03661,16.49556 63.13367,34.17962 104.1875,52.9668 -31.18403,10.71052 -59.3528,18.21176 -84.83007,22.96484 -6.72519,-18.84891 -13.24452,-44.46758 -19.35743,-75.93164 z m 333.41797,0.3086 c -5.42769,25.66137 -11.8561,50.71188 -19.08398,75.27343 -23.47344,-4.76954 -50.68326,-12.13197 -82.15039,-22.57421 27.75701,-12.82572 61.78108,-30.65253 101.23437,-52.69922 z m -165.0664,80.625 c 45.13386,17.85639 87.8281,31.13589 127.99023,39.48632 -17.24765,39.27239 -36.36385,68.70663 -56.60351,88.38282 -22.94966,22.31073 -46.67506,32.45312 -73.51563,32.45312 -25.14638,0 -48.09121,-10.02535 -70.94922,-32.41406 -20.11288,-19.69994 -39.57661,-49.15295 -57.6582,-88.37695 37.41479,-7.6102 80.986,-20.88936 130.73633,-39.53125 z"
         sodipodi:nodetypes="sscssscssscssscssscssscsssscccssssscccsscccsssccccccccccccscccsccssssssssscsccccccsccccsssccssscccccccccccccssscc" /></g></g></svg>
