<?xml version="1.0" encoding="UTF-8" standalone="no"?>
<!-- Created with Inkscape (http://www.inkscape.org/) -->

<svg
   height="1024"
   width="1024"
   sodipodi:docname="u269D_outlined_atom.svg"
   version="1.1"
   id="svg4375"
   viewBox="0 0 1024 1024"
   inkscape:version="1.2.2 (732a01da63, 2022-12-09)"
   xml:space="preserve"
   xmlns:inkscape="http://www.inkscape.org/namespaces/inkscape"
   xmlns:sodipodi="http://sodipodi.sourceforge.net/DTD/sodipodi-0.dtd"
   xmlns="http://www.w3.org/2000/svg"
   xmlns:svg="http://www.w3.org/2000/svg"
   xmlns:rdf="http://www.w3.org/1999/02/22-rdf-syntax-ns#"
   xmlns:cc="http://creativecommons.org/ns#"
   xmlns:dc="http://purl.org/dc/elements/1.1/"><sodipodi:namedview
     id="base"
     pagecolor="#ffffff"
     bordercolor="#000000"
     borderopacity="0.3"
     inkscape:pageopacity="0.0"
     inkscape:pageshadow="2"
     inkscape:zoom="1"
     inkscape:cx="597"
     inkscape:cy="472.5"
     inkscape:document-units="px"
     inkscape:current-layer="layer1"
     showgrid="false"
     showguides="true"
     inkscape:window-width="2560"
     inkscape:window-height="1361"
     inkscape:window-x="-9"
     inkscape:window-y="136"
     inkscape:window-maximized="1"
     showborder="true"
     inkscape:showpageshadow="false"
     inkscape:pagecheckerboard="0"
     inkscape:deskcolor="#d1d1d1"
     inkscape:lockguides="true"><sodipodi:guide
       id="guide_baseline"
       inkscape:label="baseline"
       position="-100,204.8"
       orientation="0,1"
       inkscape:locked="true"
       inkscape:color="rgb(165,29,45)" /><sodipodi:guide
       id="guide_ascender"
       inkscape:label="ascender"
       position="-100,1024"
       orientation="0,1"
       inkscape:locked="true"
       inkscape:color="rgb(0,134,229)" /><sodipodi:guide
       id="guide_caps"
       inkscape:label="1/10 CAPS"
       position="-100,921.6"
       orientation="0,1"
       inkscape:locked="true"
       inkscape:color="rgb(165,29,45)" /><sodipodi:guide
       id="guide_xheight"
       inkscape:label="xheight"
       position="-100,716.8"
       orientation="0,1"
       inkscape:locked="true"
       inkscape:color="rgb(165,29,45)" /><sodipodi:guide
       id="guide_descender"
       inkscape:label="descender"
       position="-100,0"
       orientation="0,1"
       inkscape:locked="true"
       inkscape:color="rgb(0,134,229)" /><sodipodi:guide
       position="204.8,1049"
       orientation="-1,0"
       id="guide4387"
       inkscape:locked="true"
       inkscape:label="204.8"
       inkscape:color="rgb(0,134,229)" /><sodipodi:guide
       position="409.6,1049"
       orientation="-1,0"
       id="guide4389"
       inkscape:locked="true"
       inkscape:label="409.6"
       inkscape:color="rgb(0,134,229)" /><sodipodi:guide
       position="-100,819.2"
       orientation="0,1"
       id="guide4391"
       inkscape:locked="true"
       inkscape:label="2/10"
       inkscape:color="rgb(38,162,105)" /><sodipodi:guide
       position="-100,614.4"
       orientation="0,1"
       id="guide4393"
       inkscape:locked="true"
       inkscape:label="4/10"
       inkscape:color="rgb(38,162,105)" /><sodipodi:guide
       position="-100,512"
       orientation="0,1"
       id="guide4395"
       inkscape:locked="true"
       inkscape:label="5/10"
       inkscape:color="rgb(38,162,105)" /><sodipodi:guide
       position="-100,409.6"
       orientation="0,1"
       id="guide4397"
       inkscape:locked="true"
       inkscape:label="6/10"
       inkscape:color="rgb(38,162,105)" /><sodipodi:guide
       position="-100,307.2"
       orientation="0,1"
       id="guide4399"
       inkscape:locked="true"
       inkscape:label="7/10"
       inkscape:color="rgb(38,162,105)" /><sodipodi:guide
       position="-100,102.4"
       orientation="0,1"
       id="guide4401"
       inkscape:locked="true"
       inkscape:label="1/10"
       inkscape:color="rgb(38,162,105)" /><sodipodi:guide
       position="614.4,1049"
       orientation="-1,0"
       id="guide4403"
       inkscape:locked="true"
       inkscape:label="614.4"
       inkscape:color="rgb(0,134,229)" /><sodipodi:guide
       position="819.2,1049"
       orientation="-1,0"
       id="guide4405"
       inkscape:locked="true"
       inkscape:label="819.2"
       inkscape:color="rgb(0,134,229)" /><sodipodi:guide
       position="1024,1049"
       orientation="-1,0"
       id="guide4407"
       inkscape:locked="true"
       inkscape:label="1024"
       inkscape:color="rgb(0,134,229)" /><sodipodi:guide
       position="-100,871.4"
       orientation="0,1"
       id="guide8061"
       inkscape:locked="true"
       inkscape:label="1.5/10"
       inkscape:color="rgb(0,134,229)" /><sodipodi:guide
       position="-100,256"
       orientation="0,1"
       id="guide8063"
       inkscape:locked="true"
       inkscape:label="7.5/10"
       inkscape:color="rgb(143,240,164)" /><sodipodi:guide
       position="102.4,1049"
       orientation="-1,0"
       id="guide8093"
       inkscape:locked="true"
       inkscape:label="102.4"
       inkscape:color="rgb(0,134,229)" /><sodipodi:guide
       position="307.2,1049"
       orientation="-1,0"
       id="guide8095"
       inkscape:locked="true"
       inkscape:label="307.2"
       inkscape:color="rgb(0,134,229)" /><sodipodi:guide
       position="512,1049"
       orientation="-1,0"
       id="guide8099"
       inkscape:locked="true"
       inkscape:label="512"
       inkscape:color="rgb(0,134,229)" /><sodipodi:guide
       position="716.8,1049"
       orientation="-1,0"
       id="guide8101"
       inkscape:locked="true"
       inkscape:label="716.8"
       inkscape:color="rgb(0,134,229)" /><sodipodi:guide
       position="921.6,1049"
       orientation="-1,0"
       id="guide8167"
       inkscape:locked="true"
       inkscape:label="921.6"
       inkscape:color="rgb(0,134,229)" /><sodipodi:guide
       position="-100,768"
       orientation="0,1"
       id="guide8258"
       inkscape:locked="true"
       inkscape:label=""
       inkscape:color="rgb(229,165,10)" /><sodipodi:guide
       position="153.6,1074"
       orientation="-1,0"
       id="guide8297"
       inkscape:locked="true"
       inkscape:label=""
       inkscape:color="rgb(0,134,229)" /><sodipodi:guide
       position="-100,564"
       orientation="0,1"
       id="guide8299"
       inkscape:locked="true"
       inkscape:label=""
       inkscape:color="rgb(0,134,229)" /><sodipodi:guide
       position="-100,665.6"
       orientation="0,1"
       id="guide8301"
       inkscape:locked="true"
       inkscape:label=""
       inkscape:color="rgb(0,134,229)" /><sodipodi:guide
       position="358.4,1074"
       orientation="-1,0"
       id="guide8303"
       inkscape:locked="true"
       inkscape:label=""
       inkscape:color="rgb(0,134,229)" /><sodipodi:guide
       position="-100,460.8"
       orientation="0,1"
       id="guide8344"
       inkscape:locked="true"
       inkscape:label=""
       inkscape:color="rgb(0,134,229)" /><sodipodi:guide
       position="-100,358.4"
       orientation="0,1"
       id="guide8346"
       inkscape:locked="true"
       inkscape:label=""
       inkscape:color="rgb(0,134,229)" /><sodipodi:guide
       position="0,1049"
       orientation="-1,0"
       id="guide9752"
       inkscape:locked="true"
       inkscape:label="0"
       inkscape:color="rgb(0,134,229)" /><sodipodi:guide
       position="256,1074"
       orientation="-1,0"
       id="guide11115"
       inkscape:locked="true"
       inkscape:label=""
       inkscape:color="rgb(0,134,229)" /><sodipodi:guide
       position="563.2,1074"
       orientation="-1,0"
       id="guide11117"
       inkscape:locked="true"
       inkscape:label=""
       inkscape:color="rgb(0,134,229)" /><sodipodi:guide
       position="665.6,1074"
       orientation="-1,0"
       id="guide12436"
       inkscape:locked="true"
       inkscape:label=""
       inkscape:color="rgb(0,134,229)" /><sodipodi:guide
       position="460.8,1074"
       orientation="-1,0"
       id="guide12704"
       inkscape:locked="true"
       inkscape:label=""
       inkscape:color="rgb(0,134,229)" /><sodipodi:guide
       position="-100,153.6"
       orientation="0,1"
       id="guide13358"
       inkscape:locked="true"
       inkscape:label="8.5/10"
       inkscape:color="rgb(0,134,229)" /><sodipodi:guide
       position="-100,128"
       orientation="0,1"
       id="guide13360"
       inkscape:locked="true"
       inkscape:label=""
       inkscape:color="rgb(0,134,229)" /><sodipodi:guide
       position="-100,51.2"
       orientation="0,1"
       id="guide30306"
       inkscape:locked="true"
       inkscape:label=""
       inkscape:color="rgb(0,134,229)" /><sodipodi:guide
       position="51.2,1074"
       orientation="-1,0"
       id="guide417"
       inkscape:locked="true"
       inkscape:label=""
       inkscape:color="rgb(0,134,229)" /><sodipodi:guide
       position="768,1074"
       orientation="-1,0"
       id="guide615"
       inkscape:locked="true"
       inkscape:label=""
       inkscape:color="rgb(0,134,229)" /><sodipodi:guide
       position="-100,972.8"
       orientation="0,1"
       id="guide9421"
       inkscape:locked="true"
       inkscape:label=""
       inkscape:color="rgb(0,134,229)" /><sodipodi:guide
       position="-100,1126.4"
       orientation="0,1"
       id="guide8432"
       inkscape:locked="true"
       inkscape:label=""
       inkscape:color="rgb(0,134,229)" /><sodipodi:guide
       position="-100,1075.2"
       orientation="0,1"
       id="guide8434"
       inkscape:locked="true"
       inkscape:label=""
       inkscape:color="rgb(0,134,229)" /><sodipodi:guide
       position="870.4,1074"
       orientation="-1,0"
       id="guide8436"
       inkscape:locked="true"
       inkscape:label=""
       inkscape:color="rgb(0,134,229)" /></sodipodi:namedview><defs
     id="defs4"><linearGradient
       id="linearGradient8000"
       inkscape:swatch="solid"><stop
         style="stop-color:#000000;stop-opacity:1;"
         offset="0"
         id="stop7998" /></linearGradient><clipPath
       clipPathUnits="userSpaceOnUse"
       id="clipPath6029"><g
         inkscape:label="Clip"
         id="use6031" /></clipPath><clipPath
       clipPathUnits="userSpaceOnUse"
       id="clipPath6029-3"><g
         inkscape:label="Clip"
         id="use6031-9" /></clipPath><clipPath
       clipPathUnits="userSpaceOnUse"
       id="clipPath6029-85"><g
         inkscape:label="Clip"
         id="use6031-4" /></clipPath><clipPath
       clipPathUnits="userSpaceOnUse"
       id="clipPath6029-9"><g
         inkscape:label="Clip"
         id="use6031-8" /></clipPath><clipPath
       clipPathUnits="userSpaceOnUse"
       id="clipPath6029-8"><g
         inkscape:label="Clip"
         id="use6031-0" /></clipPath><clipPath
       clipPathUnits="userSpaceOnUse"
       id="clipPath8428"><g
         inkscape:label="Clip"
         id="use8430" /></clipPath><clipPath
       clipPathUnits="userSpaceOnUse"
       id="clipPath6029-5"><g
         inkscape:label="Clip"
         id="use6031-6" /></clipPath><clipPath
       clipPathUnits="userSpaceOnUse"
       id="clipPath6029-83"><g
         inkscape:label="Clip"
         id="use6031-62" /></clipPath><clipPath
       clipPathUnits="userSpaceOnUse"
       id="clipPath6029-6"><g
         inkscape:label="Clip"
         id="use6031-3" /></clipPath><clipPath
       clipPathUnits="userSpaceOnUse"
       id="clipPath6029-7"><g
         inkscape:label="Clip"
         id="use6031-99" /></clipPath><clipPath
       clipPathUnits="userSpaceOnUse"
       id="clipPath6029-30"><g
         inkscape:label="Clip"
         id="use6031-5" /></clipPath><clipPath
       clipPathUnits="userSpaceOnUse"
       id="clipPath6029-99"><g
         inkscape:label="Clip"
         id="use6031-05" /></clipPath><clipPath
       clipPathUnits="userSpaceOnUse"
       id="clipPath6029-4"><g
         inkscape:label="Clip"
         id="use6031-39" /></clipPath><clipPath
       clipPathUnits="userSpaceOnUse"
       id="clipPath6029-68"><g
         inkscape:label="Clip"
         id="use6031-7" /></clipPath><clipPath
       clipPathUnits="userSpaceOnUse"
       id="clipPath6029-92"><g
         inkscape:label="Clip"
         id="use6031-76" /></clipPath><clipPath
       clipPathUnits="userSpaceOnUse"
       id="clipPath6029-73"><g
         inkscape:label="Clip"
         id="use6031-75" /></clipPath><clipPath
       clipPathUnits="userSpaceOnUse"
       id="clipPath6029-1"><g
         inkscape:label="Clip"
         id="use6031-1" /></clipPath><clipPath
       clipPathUnits="userSpaceOnUse"
       id="clipPath6029-37"><g
         inkscape:label="Clip"
         id="use6031-2" /></clipPath><clipPath
       clipPathUnits="userSpaceOnUse"
       id="clipPath6029-67"><g
         inkscape:label="Clip"
         id="use6031-81" /></clipPath><clipPath
       clipPathUnits="userSpaceOnUse"
       id="clipPath6029-76"><g
         inkscape:label="Clip"
         id="use6031-766" /></clipPath><clipPath
       clipPathUnits="userSpaceOnUse"
       id="clipPath6029-685"><g
         inkscape:label="Clip"
         id="use6031-19" /></clipPath><clipPath
       clipPathUnits="userSpaceOnUse"
       id="clipPath6029-33"><g
         inkscape:label="Clip"
         id="use6031-37" /></clipPath><clipPath
       clipPathUnits="userSpaceOnUse"
       id="clipPath6029-40"><g
         inkscape:label="Clip"
         id="use6031-46" /></clipPath><clipPath
       clipPathUnits="userSpaceOnUse"
       id="clipPath6029-764"><g
         inkscape:label="Clip"
         id="use6031-29" /></clipPath><clipPath
       clipPathUnits="userSpaceOnUse"
       id="clipPath6029-44"><g
         inkscape:label="Clip"
         id="use6031-00" /></clipPath><clipPath
       clipPathUnits="userSpaceOnUse"
       id="clipPath6029-77"><g
         inkscape:label="Clip"
         id="use6031-68" /></clipPath><clipPath
       clipPathUnits="userSpaceOnUse"
       id="clipPath6029-31"><g
         inkscape:label="Clip"
         id="use6031-86" /></clipPath><clipPath
       clipPathUnits="userSpaceOnUse"
       id="clipPath6029-62"><g
         inkscape:label="Clip"
         id="use6031-58" /></clipPath><clipPath
       clipPathUnits="userSpaceOnUse"
       id="clipPath6029-56"><g
         inkscape:label="Clip"
         id="use6031-77" /></clipPath><clipPath
       clipPathUnits="userSpaceOnUse"
       id="clipPath6029-18"><g
         inkscape:label="Clip"
         id="use6031-26" /></clipPath><clipPath
       clipPathUnits="userSpaceOnUse"
       id="clipPath6029-2"><g
         inkscape:label="Clip"
         id="use6031-91" /></clipPath><clipPath
       clipPathUnits="userSpaceOnUse"
       id="clipPath6029-0"><g
         inkscape:label="Clip"
         id="use6031-17" /></clipPath><clipPath
       clipPathUnits="userSpaceOnUse"
       id="clipPath6029-373"><g
         inkscape:label="Clip"
         id="use6031-80" /></clipPath><clipPath
       clipPathUnits="userSpaceOnUse"
       id="clipPath6029-98"><g
         inkscape:label="Clip"
         id="use6031-773" /></clipPath><clipPath
       clipPathUnits="userSpaceOnUse"
       id="clipPath6029-24"><g
         inkscape:label="Clip"
         id="use6031-44" /></clipPath><clipPath
       clipPathUnits="userSpaceOnUse"
       id="clipPath6029-185"><g
         inkscape:label="Clip"
         id="use6031-61" /></clipPath><clipPath
       clipPathUnits="userSpaceOnUse"
       id="clipPath6029-87"><g
         inkscape:label="Clip"
         id="use6031-79" /></clipPath><clipPath
       clipPathUnits="userSpaceOnUse"
       id="clipPath6029-19"><g
         inkscape:label="Clip"
         id="use6031-45" /></clipPath><clipPath
       clipPathUnits="userSpaceOnUse"
       id="clipPath6029-52"><g
         inkscape:label="Clip"
         id="use6031-25" /></clipPath><clipPath
       clipPathUnits="userSpaceOnUse"
       id="clipPath6029-79"><g
         inkscape:label="Clip"
         id="use6031-59" /></clipPath><clipPath
       clipPathUnits="userSpaceOnUse"
       id="clipPath6029-60"><g
         inkscape:label="Clip"
         id="use6031-50" /></clipPath><clipPath
       clipPathUnits="userSpaceOnUse"
       id="clipPath6029-440"><g
         inkscape:label="Clip"
         id="use6031-056" /></clipPath><clipPath
       clipPathUnits="userSpaceOnUse"
       id="clipPath6029-65"><g
         inkscape:label="Clip"
         id="use6031-97" /></clipPath><clipPath
       clipPathUnits="userSpaceOnUse"
       id="clipPath6029-768"><g
         inkscape:label="Clip"
         id="use6031-35" /></clipPath><clipPath
       clipPathUnits="userSpaceOnUse"
       id="clipPath6029-404"><g
         inkscape:label="Clip"
         id="use6031-43" /></clipPath><clipPath
       clipPathUnits="userSpaceOnUse"
       id="clipPath6029-306"><g
         inkscape:label="Clip"
         id="use6031-376" /></clipPath><clipPath
       clipPathUnits="userSpaceOnUse"
       id="clipPath6029-71"><g
         inkscape:label="Clip"
         id="use6031-66" /></clipPath><clipPath
       clipPathUnits="userSpaceOnUse"
       id="clipPath6029-731"><g
         inkscape:label="Clip"
         id="use6031-626" /></clipPath><clipPath
       clipPathUnits="userSpaceOnUse"
       id="clipPath6029-23"><g
         inkscape:label="Clip"
         id="use6031-811" /></clipPath><clipPath
       clipPathUnits="userSpaceOnUse"
       id="clipPath6029-198"><g
         inkscape:label="Clip"
         id="use6031-16" /></clipPath><clipPath
       clipPathUnits="userSpaceOnUse"
       id="clipPath6029-653"><g
         inkscape:label="Clip"
         id="use6031-6268" /></clipPath><clipPath
       clipPathUnits="userSpaceOnUse"
       id="clipPath6029-54"><g
         inkscape:label="Clip"
         id="use6031-10" /></clipPath><clipPath
       clipPathUnits="userSpaceOnUse"
       id="clipPath6029-32"><g
         inkscape:label="Clip"
         id="use6031-175" /></clipPath><clipPath
       clipPathUnits="userSpaceOnUse"
       id="clipPath6029-21"><g
         inkscape:label="Clip"
         id="use6031-23" /></clipPath><clipPath
       clipPathUnits="userSpaceOnUse"
       id="clipPath6029-49"><g
         inkscape:label="Clip"
         id="use6031-93" /></clipPath><clipPath
       clipPathUnits="userSpaceOnUse"
       id="clipPath6029-74"><g
         inkscape:label="Clip"
         id="use6031-813" /></clipPath><clipPath
       clipPathUnits="userSpaceOnUse"
       id="clipPath6029-39"><g
         inkscape:label="Clip"
         id="use6031-52" /></clipPath><clipPath
       clipPathUnits="userSpaceOnUse"
       id="clipPath6029-925"><g
         inkscape:label="Clip"
         id="use6031-47" /></clipPath><clipPath
       clipPathUnits="userSpaceOnUse"
       id="clipPath6029-47"><g
         inkscape:label="Clip"
         id="use6031-24" /></clipPath><clipPath
       clipPathUnits="userSpaceOnUse"
       id="clipPath6029-36"><g
         inkscape:label="Clip"
         id="use6031-38" /></clipPath><clipPath
       clipPathUnits="userSpaceOnUse"
       id="clipPath6029-682"><g
         inkscape:label="Clip"
         id="use6031-477" /></clipPath><clipPath
       clipPathUnits="userSpaceOnUse"
       id="clipPath6029-20"><g
         inkscape:label="Clip"
         id="use6031-84" /></clipPath><clipPath
       clipPathUnits="userSpaceOnUse"
       id="clipPath6029-04"><g
         inkscape:label="Clip"
         id="use6031-18" /></clipPath><clipPath
       clipPathUnits="userSpaceOnUse"
       id="clipPath6029-540"><g
         inkscape:label="Clip"
         id="use6031-938" /></clipPath><clipPath
       clipPathUnits="userSpaceOnUse"
       id="clipPath6029-51"><g
         inkscape:label="Clip"
         id="use6031-163" /></clipPath><clipPath
       clipPathUnits="userSpaceOnUse"
       id="clipPath6029-91"><g
         inkscape:label="Clip"
         id="use6031-680" /></clipPath><clipPath
       clipPathUnits="userSpaceOnUse"
       id="clipPath6029-41"><g
         inkscape:label="Clip"
         id="use6031-454" /></clipPath><clipPath
       clipPathUnits="userSpaceOnUse"
       id="clipPath6029-309"><g
         inkscape:label="Clip"
         id="use6031-22" /></clipPath><clipPath
       clipPathUnits="userSpaceOnUse"
       id="clipPath6029-88"><g
         inkscape:label="Clip"
         id="use6031-63" /></clipPath><clipPath
       clipPathUnits="userSpaceOnUse"
       id="clipPath6029-917"><g
         inkscape:label="Clip"
         id="use6031-34" /></clipPath><clipPath
       clipPathUnits="userSpaceOnUse"
       id="clipPath6029-42"><g
         inkscape:label="Clip"
         id="use6031-004" /></clipPath><clipPath
       clipPathUnits="userSpaceOnUse"
       id="clipPath6029-392"><g
         inkscape:label="Clip"
         id="use6031-60" /></clipPath><clipPath
       clipPathUnits="userSpaceOnUse"
       id="clipPath6029-677"><g
         inkscape:label="Clip"
         id="use6031-94" /></clipPath><clipPath
       clipPathUnits="userSpaceOnUse"
       id="clipPath6029-308"><g
         inkscape:label="Clip"
         id="use6031-01" /></clipPath><clipPath
       clipPathUnits="userSpaceOnUse"
       id="clipPath6029-53"><g
         inkscape:label="Clip"
         id="use6031-90" /></clipPath><clipPath
       clipPathUnits="userSpaceOnUse"
       id="clipPath6029-739"><g
         inkscape:label="Clip"
         id="use6031-386" /></clipPath><clipPath
       clipPathUnits="userSpaceOnUse"
       id="clipPath6029-59"><g
         inkscape:label="Clip"
         id="use6031-261" /></clipPath><clipPath
       clipPathUnits="userSpaceOnUse"
       id="clipPath6029-81"><g
         inkscape:label="Clip"
         id="use6031-902" /></clipPath><clipPath
       clipPathUnits="userSpaceOnUse"
       id="clipPath6029-17"><g
         inkscape:label="Clip"
         id="use6031-02" /></clipPath><clipPath
       clipPathUnits="userSpaceOnUse"
       id="clipPath6029-84"><g
         inkscape:label="Clip"
         id="use6031-108" /></clipPath><clipPath
       clipPathUnits="userSpaceOnUse"
       id="clipPath6029-514"><g
         inkscape:label="Clip"
         id="use6031-31" /></clipPath><clipPath
       clipPathUnits="userSpaceOnUse"
       id="clipPath6029-767"><g
         inkscape:label="Clip"
         id="use6031-74" /></clipPath><clipPath
       clipPathUnits="userSpaceOnUse"
       id="clipPath6029-209"><g
         inkscape:label="Clip"
         id="use6031-95" /></clipPath><clipPath
       clipPathUnits="userSpaceOnUse"
       id="clipPath6029-03"><g
         inkscape:label="Clip"
         id="use6031-78" /></clipPath><clipPath
       clipPathUnits="userSpaceOnUse"
       id="clipPath6029-776"><g
         inkscape:label="Clip"
         id="use6031-776" /></clipPath><clipPath
       clipPathUnits="userSpaceOnUse"
       id="clipPath6029-94"><g
         inkscape:label="Clip"
         id="use6031-440" /></clipPath><clipPath
       clipPathUnits="userSpaceOnUse"
       id="clipPath6029-90"><g
         inkscape:label="Clip"
         id="use6031-30" /></clipPath><clipPath
       clipPathUnits="userSpaceOnUse"
       id="clipPath6029-323"><g
         inkscape:label="Clip"
         id="use6031-996" /></clipPath><clipPath
       clipPathUnits="userSpaceOnUse"
       id="clipPath6029-45"><g
         inkscape:label="Clip"
         id="use6031-28" /></clipPath><clipPath
       clipPathUnits="userSpaceOnUse"
       id="clipPath6029-34"><g
         inkscape:label="Clip"
         id="use6031-769" /></clipPath></defs><metadata
     id="metadata7"><rdf:RDF><cc:Work
         rdf:about=""><dc:format>image/svg+xml</dc:format><dc:type
           rdf:resource="http://purl.org/dc/dcmitype/StillImage" /></cc:Work></rdf:RDF></metadata><g
     id="layer1"
     inkscape:groupmode="layer"
     inkscape:label="Layer 1"
     style="display:inline"><g
       id="g766658"
       transform="matrix(0.97359009,0,0,0.97359007,12.169876,12.169876)"><path
         id="path761081"
         style="stroke-width:1.03394"
         d="m 921.6,357.05418 q 0,60.03564 -145.14185,187.47976 L 754.12863,516.096 q 131.94713,-119.01806 131.94713,-153.77554 0,-25.27818 -119.76739,-41.60366 -119.76739,-16.32548 -262.8793,-16.32548 -57.85374,0 -104.54273,3.15976 l -2.02996,-35.81074 q 45.67401,-3.15976 115.70749,-3.15976 69.01851,0 134.48458,3.6864 65.46608,3.6864 130.42467,13.1657 Q 842.43171,294.912 882.01586,313.344 921.6,331.776 921.6,357.05418 Z M 593.76211,202.22538 561.28282,215.91772 Q 536.92334,155.88206 504.44405,95.8464 471.96476,35.810741 457.75506,35.810741 q -28.41938,0 -95.91542,162.201599 -67.49602,162.2016 -102.00529,304.39132 l -32.47929,-9.47932 Q 246.63964,410.77028 282.67137,303.33806 318.70308,195.90582 369.45198,97.952918 420.20088,0 457.75506,0 514.59383,0 593.76211,202.22538 Z M 656.69075,368.64 q 37.55419,92.68662 75.10837,236.98286 37.55418,144.29622 38.56917,230.66332 0,78.99428 -46.68899,78.99428 -62.92864,0 -198.93568,-87.42034 L 544.0282,796.2624 q 133.97709,84.26058 177.62114,84.26058 15.22467,0 15.22467,-33.70424 0,-81.1008 -38.06168,-228.5568 -38.06167,-147.456 -73.5859,-236.98286 z M 232.42996,315.97714 q -51.76388,3.15978 -123.82732,17.90538 -72.063433,14.7456 -74.093389,32.65096 0,36.864 134.484579,154.30218 134.48458,117.43816 231.92248,180.6336 L 382.6467,732.01372 Q 327.83789,696.20298 246.63964,633.53418 165.44141,570.86538 82.720705,487.65806 0,404.45074 0,362.32046 0,298.07178 229.38502,280.1664 Z M 640.45109,656.1792 Q 534.8934,746.75932 397.87137,834.17966 260.84934,921.6 200.96565,921.6 q -47.70398,0 -47.70398,-81.1008 0,-66.3552 25.37446,-172.73418 l 33.49426,8.42606 q -24.35946,109.53874 -24.35946,182.2135 0,28.43794 15.22465,28.43794 43.64406,0 185.23349,-90.58012 141.58943,-90.58012 229.89252,-167.46788 z" /><g
         id="path762290"
         transform="translate(0,3.8484999e-4)"><path
           style="color:#000000;fill:#000000;stroke-width:25;-inkscape-stroke:none"
           d="m 921.6,357.05418 q 0,60.03564 -145.14185,187.47976 L 754.12863,516.096 q 131.94713,-119.01806 131.94713,-153.77554 0,-25.27818 -119.76739,-41.60366 -119.76739,-16.32548 -262.8793,-16.32548 -57.85374,0 -104.54273,3.15976 l -2.02996,-35.81074 q 45.67401,-3.15976 115.70749,-3.15976 69.01851,0 134.48458,3.6864 65.46608,3.6864 130.42467,13.1657 Q 842.43171,294.912 882.01586,313.344 921.6,331.776 921.6,357.05418 Z M 593.76211,202.22538 561.28282,215.91772 Q 536.92334,155.88206 504.44405,95.8464 471.96476,35.810741 457.75506,35.810741 q -28.41938,0 -95.91542,162.201599 -67.49602,162.2016 -102.00529,304.39132 l -32.47929,-9.47932 Q 246.63964,410.77028 282.67137,303.33806 318.70308,195.90582 369.45198,97.952918 420.20088,0 457.75506,0 514.59383,0 593.76211,202.22538 Z M 656.69075,368.64 q 37.55419,92.68662 75.10837,236.98286 37.55418,144.29622 38.56917,230.66332 0,78.99428 -46.68899,78.99428 -62.92864,0 -198.93568,-87.42034 L 544.0282,796.2624 q 133.97709,84.26058 177.62114,84.26058 15.22467,0 15.22467,-33.70424 0,-81.1008 -38.06168,-228.5568 -38.06167,-147.456 -73.5859,-236.98286 z M 232.42996,315.97714 q -51.76388,3.15978 -123.82732,17.90538 -72.063433,14.7456 -74.093389,32.65096 0,36.864 134.484579,154.30218 134.48458,117.43816 231.92248,180.6336 L 382.6467,732.01372 Q 327.83789,696.20298 246.63964,633.53418 165.44141,570.86538 82.720705,487.65806 0,404.45074 0,362.32046 0,298.07178 229.38502,280.1664 Z M 640.45109,656.1792 Q 534.8934,746.75932 397.87137,834.17966 260.84934,921.6 200.96565,921.6 q -47.70398,0 -47.70398,-81.1008 0,-66.3552 25.37446,-172.73418 l 33.49426,8.42606 q -24.35946,109.53874 -24.35946,182.2135 0,28.43794 15.22465,28.43794 43.64406,0 185.23349,-90.58012 141.58943,-90.58012 229.89252,-167.46788 z"
           id="path764472" /><path
           id="path766688"
           style="color:#000000;fill:#000000;stroke:#000000;stroke-width:1.00042;stroke-dasharray:none;stroke-opacity:1;paint-order:markers stroke fill"
           d="m 457.75534,-12.500385 c -17.9519,0 -34.24142,10.9846252 -50.13861,28.61911 -15.89723,17.634481 -32.05809,42.873721 -49.26395,76.083581 -34.13517,65.885924 -63.31306,134.948044 -87.53242,207.160544 -24.11265,71.89428 -42.6603,135.42946 -55.63534,190.70446 l -2.70624,11.53511 56.41571,16.46813 3.0874,-12.71871 c 22.82244,-94.03602 56.60904,-194.90173 101.39863,-302.53685 22.379,-53.77958 41.5102,-93.98932 56.94533,-120.091536 7.71757,-13.051118 14.5728,-22.574124 19.8765,-28.205852 3.50924,-3.726249 6.05394,-5.146363 7.1297,-5.743482 0.29172,0.167366 0.37585,0.16099 0.86463,0.55168 1.92823,1.541291 4.95433,4.650064 8.46778,9.167905 7.02695,9.035674 16.14067,23.62554 26.78552,43.301805 21.44528,39.64006 40.19159,79.24654 56.24921,118.82166 l 4.7645,11.73973 55.37856,-23.34505 -4.43951,-11.34453 C 578.82843,129.78652 554.1166,78.62253 530.5489,43.580312 506.9812,8.5380946 484.11363,-12.500385 457.75534,-12.500385 Z m 54.80882,268.579495 c -46.87663,0 -85.68285,1.05285 -116.57081,3.18971 l -12.31548,0.8546 3.44247,60.75091 12.61039,-0.85059 c 30.77875,-2.08302 65.35831,-3.13353 103.69963,-3.13354 94.93196,0 182.00478,5.41776 261.189,16.21135 39.49445,5.38346 68.93349,11.56783 87.41206,17.98674 9.23927,3.20944 15.69635,6.56701 18.93563,9.05958 1.8372,1.41371 2.38724,2.09791 2.55578,2.34313 -0.13356,3.88681 -8.70346,22.78492 -29.92107,47.51262 -21.38489,24.92264 -54.08842,57.34094 -97.84582,96.81067 l -8.66838,7.81779 37.69473,48.00813 9.9222,-8.71252 c 48.7459,-42.80214 85.51341,-80.06613 110.49432,-112.33392 24.98085,-32.26782 38.9004,-59.49093 38.9004,-84.53932 0,-11.68834 -4.9231,-22.89497 -13.12996,-31.95727 -8.20689,-9.06231 -19.49074,-16.48075 -33.67651,-23.08627 -28.01786,-13.04623 -63.92281,-22.51184 -108.01477,-28.9461 -43.67,-6.3727 -87.5138,-10.80006 -131.52633,-13.27842 -43.88991,-2.4714 -88.95287,-3.70728 -135.18748,-3.70728 z m -271.77521,10.65844 -12.37768,0.96694 C 151.37192,273.71808 93.309912,283.49857 53.131767,297.88837 33.042693,305.08324 17.302849,313.39549 5.879944,323.8855 -5.5429585,334.37551 -12.5,347.89344 -12.5,362.32048 c 0,36.26765 30.464407,77.93108 86.354842,134.15033 55.482268,55.80862 110.521948,104.79993 165.146668,146.95931 54.29703,41.90642 99.83859,74.89359 136.8064,99.04747 l 10.88915,7.11366 31.13476,-52.05043 -10.11278,-6.55796 C 343.52396,649.34775 266.58135,589.45874 177.21545,511.42031 132.63162,472.48764 99.318126,440.30132 77.552096,415.32782 57.511141,392.33365 48.581438,374.44065 47.275943,368.06597 c 0.194268,-0.2287 0.277085,-0.37176 0.862626,-0.88469 1.792612,-1.57032 5.507945,-3.92539 10.949327,-6.32325 10.882758,-4.79574 28.476801,-9.91093 52.022344,-14.72883 47.63786,-9.74765 88.40078,-15.61983 122.08158,-17.6758 l 12.77689,-0.78038 -1.08329,-12.75482 z m 422.80692,85.65672 -11.56521,4.64614 -43.01292,17.27859 4.58997,11.56922 c 23.37941,58.91988 47.80847,137.51397 73.1005,235.4988 25.23571,97.76635 37.66465,173.31881 37.66465,225.43016 0,10.29361 -1.44577,17.36508 -2.69621,20.13328 -0.24179,0.53528 -0.30417,0.78719 -0.36311,1.03314 -10.61968,-0.10314 -31.89119,-6.23255 -60.53425,-19.82032 -28.88692,-13.70351 -65.69525,-34.55834 -110.0951,-62.48219 l -10.72464,-6.74653 -32.24816,52.83682 10.27327,6.6041 c 91.40835,58.75397 157.95367,89.40614 205.69408,89.40614 19.0877,0 36.13863,-9.58081 45.77734,-25.8888 9.63871,-16.308 13.41282,-38.0431 13.41282,-65.60569 v -0.0742 l -0.002,-0.0742 C 782.17011,776.83122 769.07842,699.23202 743.89628,602.47345 718.76885,505.92511 693.61532,426.48447 668.27611,363.94543 Z m -43.94576,258.4948 -9.73564,8.4778 c -58.20633,50.68175 -134.38976,106.20758 -228.42326,166.36438 -46.9506,30.03607 -85.68069,52.48043 -115.85664,67.23665 -30.17595,14.75619 -52.41451,21.37305 -62.63865,21.37305 -0.13413,0 -0.12824,0.0479 -0.1966,0.0722 -0.0247,-0.14132 -0.0371,-0.27072 -0.20262,-0.57976 -0.90084,-1.68265 -2.32508,-7.06506 -2.32508,-15.42896 0,-47.05292 7.9489,-107.04685 24.06124,-179.50036 l 2.64004,-11.87013 -57.5592,-14.48007 -2.93694,12.31147 c -17.05226,71.48935 -25.71427,129.80476 -25.71427,175.63459 0,28.25882 3.8546,50.50677 13.65155,67.16243 9.79696,16.65566 27.10867,26.43646 46.5517,26.43646 46.0048,0 111.58431,-30.65814 203.62779,-89.38205 91.7707,-58.54994 173.10705,-118.21821 243.99867,-179.05099 l 9.25015,-7.94017 -7.70344,-9.44676 z"
           sodipodi:nodetypes="ssssccccssscsssccccsssccccsssscscccssssssssccsssssccccsscsssccccccccssscsccccsssccsscccsssccsccccsssscccc" /></g></g></g></svg>
